<svg width="24" height="25" viewBox="0 0 24 25" fill="none" xmlns="http://www.w3.org/2000/svg">
<g id="24 / basic / copy">
<path id="icon" fill-rule="evenodd" clip-rule="evenodd" d="M10 2.01379H20C21.1523 2.01379 22 2.86735 22 4.02757V14.0965C22 15.2567 21.1523 16.1103 20 16.1103H16V20.1378C16 21.298 15.1523 22.1516 14 22.1516H4C2.84772 22.1516 2 21.298 2 20.1378V10.0689C2 8.90869 2.84772 8.05514 4 8.05514H8V4.02757C8 2.86735 8.84772 2.01379 10 2.01379ZM8 10.0689H4V20.1378H14V16.1103H10C8.84772 16.1103 8 15.2567 8 14.0965V10.0689ZM10 4.02757V14.0965H20V4.02757H10Z" fill="#451717"/>
</g>
</svg>
