<svg width="24" height="25" viewBox="0 0 24 25" fill="none" xmlns="http://www.w3.org/2000/svg">
<path fill-rule="evenodd" clip-rule="evenodd" d="M5 14.0965C3.89543 14.0965 3 13.1949 3 12.0827C3 10.9705 3.89543 10.0689 5 10.0689C6.10457 10.0689 7 10.9705 7 12.0827C7 13.1949 6.10457 14.0965 5 14.0965ZM12 14.0965C10.8954 14.0965 10 13.1949 10 12.0827C10 10.9705 10.8954 10.0689 12 10.0689C13.1046 10.0689 14 10.9705 14 12.0827C14 13.1949 13.1046 14.0965 12 14.0965ZM17 12.0827C17 13.1949 17.8954 14.0965 19 14.0965C20.1046 14.0965 21 13.1949 21 12.0827C21 10.9705 20.1046 10.0689 19 10.0689C17.8954 10.0689 17 10.9705 17 12.0827Z" fill="white"/>
</svg>
