<svg width="24" height="25" viewBox="0 0 24 25" fill="none" xmlns="http://www.w3.org/2000/svg">
<g id="24 / basic / options">
<path id="icon" fill-rule="evenodd" clip-rule="evenodd" d="M13 11.0758C11.1362 11.0758 9.57006 9.79224 9.12602 8.05513H2V6.04135H9.12602C9.57006 4.30423 11.1362 3.02068 13 3.02068C15.2091 3.02068 17 4.82388 17 7.04824C17 9.2726 15.2091 11.0758 13 11.0758ZM19 6.04135H22V8.05513H19V6.04135ZM8 21.1447C6.13616 21.1447 4.57006 19.8611 4.12602 18.124H2V16.1102H4.12602C4.57006 14.3731 6.13616 13.0896 8 13.0896C10.2091 13.0896 12 14.8928 12 17.1171C12 19.3415 10.2091 21.1447 8 21.1447ZM14 18.124H22V16.1102H14V18.124ZM10 17.1171C10 18.2293 9.10457 19.1309 8 19.1309C6.89543 19.1309 6 18.2293 6 17.1171C6 16.005 6.89543 15.1034 8 15.1034C9.10457 15.1034 10 16.005 10 17.1171ZM15 7.04824C15 8.16042 14.1046 9.06202 13 9.06202C11.8954 9.06202 11 8.16042 11 7.04824C11 5.93606 11.8954 5.03446 13 5.03446C14.1046 5.03446 15 5.93606 15 7.04824Z" fill="#D55258"/>
</g>
</svg>
