<svg width="24" height="24" viewBox="0 0 24 24" fill="none" xmlns="http://www.w3.org/2000/svg">
<path d="M12 13.5361H11C11 13.8931 11.1902 14.2229 11.4992 14.4017L12 13.5361ZM8 13.5361L8.50083 14.4017C8.80977 14.2229 9 13.8931 9 13.5361H8ZM8 5L7 5V5H8ZM10 3V4C10.5523 4 11 4.44772 11 5H12H13C13 3.34315 11.6569 2 10 2V3ZM12 5H11V13.5361H12H13V5H12ZM12 13.5361L11.4992 14.4017C12.3987 14.9222 13 15.8914 13 17H14H15C15 15.1478 13.9921 13.5335 12.5008 12.6706L12 13.5361ZM14 17H13C13 18.6569 11.6569 20 10 20V21V22C12.7614 22 15 19.7614 15 17H14ZM10 21V20C8.34315 20 7 18.6569 7 17H6H5C5 19.7614 7.23858 22 10 22V21ZM6 17H7C7 15.8914 7.60133 14.9222 8.50083 14.4017L8 13.5361L7.49917 12.6706C6.00794 13.5335 5 15.1478 5 17H6ZM8 13.5361H9V5H8H7V13.5361H8ZM8 5H9C9 4.44772 9.44772 4 10 4V3V2C8.34315 2 7 3.34315 7 5L8 5Z" fill="#451717"/>
<path d="M15 11H17" stroke="#451717" stroke-width="2" stroke-linecap="round" stroke-linejoin="round"/>
<path d="M15 8H17" stroke="#451717" stroke-width="2" stroke-linecap="round" stroke-linejoin="round"/>
<path d="M15 5H19" stroke="#451717" stroke-width="2" stroke-linecap="round" stroke-linejoin="round"/>
<circle cx="10" cy="17" r="1" fill="#451717"/>
</svg>
