<svg width="24" height="24" viewBox="0 0 24 24" fill="none" xmlns="http://www.w3.org/2000/svg">
<path d="M12 4L12.759 3.3489C12.569 3.12745 12.2918 3.00002 12.0001 3C11.7083 2.99998 11.4311 3.12739 11.2411 3.34882L12 4ZM16.9912 14.7217L15.9918 14.7555C15.992 14.7625 15.9923 14.7695 15.9927 14.7765L16.9912 14.7217ZM7.00781 14.7217L8.00631 14.7765C8.00669 14.7695 8.007 14.7625 8.00724 14.7555L7.00781 14.7217ZM12 4C11.241 4.6511 11.2409 4.65096 11.2408 4.65084C11.2408 4.65083 11.2407 4.65074 11.2407 4.65071C11.2406 4.65067 11.2407 4.65071 11.2408 4.65084C11.241 4.65109 11.2415 4.65168 11.2423 4.6526C11.2439 4.65444 11.2466 4.65762 11.2504 4.66212C11.258 4.67111 11.27 4.68534 11.286 4.70464C11.3182 4.74325 11.3668 4.80207 11.4294 4.87963C11.5547 5.03481 11.7362 5.26461 11.9554 5.55716C12.3946 6.14315 12.982 6.9761 13.5735 7.96138C14.776 9.96409 15.9143 12.4642 15.9918 14.7555L16.9912 14.7217L17.9906 14.6879C17.8955 11.8746 16.5383 9.01387 15.2882 6.93188C14.6536 5.87482 14.0255 4.98445 13.5558 4.35771C13.3206 4.04389 13.1242 3.79498 12.9854 3.62303C12.9159 3.53702 12.8608 3.47019 12.8223 3.42402C12.803 3.40093 12.7879 3.383 12.7773 3.37042C12.772 3.36413 12.7678 3.35918 12.7647 3.35558C12.7632 3.35379 12.7619 3.35233 12.761 3.35121C12.7605 3.35066 12.7601 3.35019 12.7598 3.3498C12.7596 3.34961 12.7594 3.34938 12.7593 3.34929C12.7591 3.34908 12.759 3.3489 12 4ZM16.9912 14.7217L15.9927 14.7765C15.9973 14.8598 16 14.9323 16 15H17H18C18 14.8809 17.9953 14.7679 17.9897 14.6669L16.9912 14.7217ZM17 15H16C16 17.2091 14.2091 19 12 19V20V21C15.3137 21 18 18.3137 18 15H17ZM12 20V19C9.79086 19 8 17.2091 8 15H7H6C6 18.3137 8.68629 21 12 21V20ZM7 15H8C8 14.9263 8.00218 14.8518 8.00631 14.7765L7.00781 14.7217L6.00931 14.6669C6.00334 14.7758 6 14.8869 6 15H7ZM7.00781 14.7217L8.00724 14.7555C8.0847 12.4642 9.22324 9.96417 10.4259 7.96145C11.0176 6.97617 11.6051 6.14322 12.0444 5.55723C12.2637 5.26469 12.4451 5.03489 12.5705 4.87971C12.6331 4.80215 12.6817 4.74333 12.7139 4.70472C12.73 4.68542 12.742 4.67118 12.7496 4.6622C12.7534 4.6577 12.7561 4.65452 12.7576 4.65268C12.7584 4.65175 12.7589 4.65117 12.7592 4.65092C12.7593 4.65079 12.7593 4.65075 12.7593 4.65079C12.7592 4.65081 12.7592 4.65091 12.7591 4.65092C12.759 4.65104 12.7589 4.65118 12 4C11.2411 3.34882 11.2409 3.349 11.2407 3.34921C11.2407 3.3493 11.2405 3.34953 11.2403 3.34972C11.24 3.35011 11.2396 3.35058 11.2391 3.35114C11.2381 3.35225 11.2369 3.35371 11.2354 3.35551C11.2323 3.3591 11.2281 3.36405 11.2228 3.37034C11.2121 3.38292 11.197 3.40085 11.1778 3.42394C11.1393 3.47011 11.0841 3.53695 11.0147 3.62295C10.8758 3.7949 10.6793 4.04381 10.4441 4.35763C9.97428 4.98437 9.34612 5.87473 8.71132 6.9318C7.46105 9.01379 6.10349 11.8746 6.00838 14.6879L7.00781 14.7217Z" fill="#451717"/>
</svg>
