<svg width="170" height="170" viewBox="0 0 170 170" fill="none" xmlns="http://www.w3.org/2000/svg">
<path d="M170 85C170 131.944 131.944 170 85 170C38.0558 170 0 131.944 0 85C0 38.0558 38.0558 0 85 0C131.944 0 170 38.0558 170 85Z" fill="#D1FFB4"/>
<path d="M75.4222 115.804L77.3628 116.288L77.3782 116.226L77.3896 116.164L75.4222 115.804ZM142.486 59.2058L144.465 59.4995L144.816 57.1317L142.424 57.2068L142.486 59.2058ZM82.2205 121.022C81.2281 120.537 80.0304 120.948 79.5454 121.94C79.0604 122.933 79.4717 124.13 80.464 124.615L81.3423 122.818L82.2205 121.022ZM120.051 78.0268C121.107 77.7023 121.699 76.5832 121.375 75.5274C121.05 74.4716 119.931 73.8789 118.875 74.2034L119.463 76.1151L120.051 78.0268ZM68.3228 135.999C68.0554 137.071 68.7075 138.157 69.7792 138.424C70.8509 138.691 71.9365 138.039 72.2038 136.968L70.2633 136.484L68.3228 135.999ZM75.4222 115.804C77.1645 114.822 77.1648 114.822 77.165 114.823C77.1644 114.821 77.163 114.819 77.1611 114.815C77.1572 114.809 77.1507 114.797 77.1416 114.78C77.1233 114.747 77.0949 114.695 77.0572 114.625C76.9818 114.484 76.8694 114.271 76.728 113.992C76.445 113.434 76.0463 112.613 75.5941 111.582C74.6878 109.517 73.5769 106.632 72.7485 103.344C71.0696 96.6813 70.6605 88.8205 74.8294 82.6408L73.1714 81.5223L71.5134 80.4038C66.3817 88.0107 67.098 97.2905 68.8697 104.322C69.7666 107.881 70.9622 110.981 71.9312 113.19C72.4167 114.296 72.8478 115.184 73.1601 115.8C73.3164 116.109 73.4431 116.349 73.5324 116.516C73.577 116.599 73.6123 116.663 73.6372 116.709C73.6497 116.731 73.6595 116.749 73.6667 116.762C73.6703 116.768 73.6732 116.774 73.6754 116.778C73.6765 116.78 73.6774 116.781 73.6782 116.783C73.6786 116.783 73.679 116.784 73.6792 116.784C73.6796 116.785 73.6799 116.786 75.4222 115.804ZM73.1714 81.5223L74.8294 82.6408C77.9841 77.9644 83.6368 74.1897 90.6443 71.1935C97.6125 68.214 105.691 66.1007 113.413 64.6116C121.124 63.1245 128.417 62.2718 133.786 61.7912C136.469 61.551 138.667 61.4042 140.191 61.3175C140.953 61.2742 141.546 61.2459 141.947 61.2285C142.148 61.2198 142.3 61.2138 142.401 61.21C142.452 61.2081 142.49 61.2068 142.515 61.206C142.527 61.2055 142.536 61.2052 142.542 61.205C142.545 61.2049 142.547 61.2049 142.548 61.2048C142.549 61.2048 142.549 61.2048 142.549 61.2048C142.549 61.2048 142.549 61.2048 142.486 59.2058C142.424 57.2068 142.423 57.2068 142.422 57.2068C142.422 57.2068 142.421 57.2069 142.42 57.2069C142.418 57.207 142.415 57.2071 142.411 57.2072C142.403 57.2074 142.392 57.2078 142.378 57.2083C142.349 57.2093 142.307 57.2108 142.253 57.2128C142.143 57.2169 141.983 57.2232 141.774 57.2322C141.356 57.2504 140.745 57.2795 139.964 57.324C138.402 57.4128 136.161 57.5626 133.43 57.8071C127.971 58.2957 120.538 59.164 112.656 60.6839C104.784 62.2018 96.4014 64.3816 89.0717 67.5155C81.7812 70.6327 75.2993 74.7918 71.5134 80.4038L73.1714 81.5223ZM142.486 59.2058C140.508 58.9121 140.508 58.9119 140.508 58.912C140.508 58.9123 140.508 58.9125 140.508 58.9131C140.508 58.9143 140.507 58.9162 140.507 58.919C140.506 58.9245 140.505 58.9333 140.503 58.9452C140.499 58.9691 140.494 59.0056 140.486 59.0545C140.471 59.1523 140.448 59.2995 140.417 59.4931C140.355 59.8803 140.26 60.4531 140.131 61.1884C139.873 62.6592 139.48 64.7786 138.939 67.3608C137.856 72.529 136.184 79.5326 133.831 86.8916C131.475 94.2607 128.455 101.926 124.691 108.445C120.909 114.998 116.491 120.193 111.433 122.891L112.374 124.655L113.315 126.42C119.331 123.211 124.215 117.272 128.156 110.445C132.115 103.586 135.238 95.6265 137.641 88.1098C140.048 80.583 141.752 73.4392 142.854 68.1813C143.405 65.5505 143.807 63.3873 144.071 61.8787C144.203 61.1243 144.301 60.5333 144.366 60.129C144.399 59.9269 144.423 59.7714 144.439 59.6655C144.448 59.6126 144.454 59.572 144.458 59.5442C144.46 59.5303 144.462 59.5196 144.463 59.5121C144.463 59.5084 144.464 59.5055 144.464 59.5034C144.464 59.5023 144.464 59.5013 144.465 59.5008C144.465 59.5 144.465 59.4995 142.486 59.2058ZM112.374 124.655L111.433 122.891C105.536 126.036 98.3513 125.683 92.391 124.391C89.4469 123.752 86.8877 122.903 85.065 122.213C84.1553 121.869 83.4334 121.566 82.9438 121.351C82.6991 121.244 82.5127 121.159 82.3902 121.102C82.329 121.073 82.2838 121.052 82.2553 121.038C82.241 121.031 82.2309 121.027 82.2251 121.024C82.2222 121.022 82.2203 121.022 82.2196 121.021C82.2192 121.021 82.2194 121.021 82.2196 121.021C82.2196 121.021 82.2205 121.022 82.2205 121.022C82.2209 121.022 82.2205 121.022 81.3423 122.818C80.464 124.615 80.4646 124.616 80.4653 124.616C80.4656 124.616 80.4663 124.616 80.467 124.617C80.4682 124.617 80.4697 124.618 80.4715 124.619C80.4751 124.621 80.4798 124.623 80.4856 124.626C80.4972 124.631 80.5131 124.639 80.5333 124.649C80.5736 124.668 80.631 124.695 80.7047 124.729C80.8521 124.798 81.065 124.895 81.3376 125.014C81.8827 125.253 82.6682 125.583 83.6488 125.954C85.6066 126.695 88.3598 127.61 91.5433 128.3C97.8382 129.665 106.169 130.231 113.315 126.42L112.374 124.655ZM75.4222 115.804C77.3896 116.164 77.3894 116.164 77.3893 116.165C77.3892 116.166 77.3891 116.166 77.389 116.167C77.3888 116.168 77.3886 116.169 77.3885 116.169C77.3883 116.17 77.3882 116.171 77.3883 116.171C77.3884 116.17 77.389 116.167 77.3902 116.161C77.3927 116.148 77.3975 116.125 77.405 116.09C77.42 116.021 77.4457 115.909 77.4847 115.755C77.5627 115.449 77.6937 114.979 77.898 114.37C78.3068 113.152 79.0091 111.376 80.1681 109.227C82.4834 104.935 86.6327 99.1311 93.9449 93.2977L92.6976 91.7342L91.4504 90.1708C83.6904 96.3615 79.202 102.593 76.6476 107.329C75.3718 109.694 74.5813 111.681 74.1059 113.097C73.8683 113.805 73.7094 114.371 73.608 114.77C73.5573 114.969 73.5209 115.127 73.4963 115.241C73.484 115.297 73.4746 115.343 73.4678 115.377C73.4644 115.394 73.4617 115.408 73.4595 115.419C73.4585 115.425 73.4575 115.43 73.4568 115.434C73.4564 115.436 73.456 115.438 73.4557 115.439C73.4556 115.44 73.4553 115.441 73.4553 115.442C73.4551 115.443 73.4549 115.444 75.4222 115.804ZM92.6976 91.7342L93.9449 93.2977C101.36 87.3823 107.93 83.5509 112.626 81.2048C114.974 80.0317 116.853 79.2302 118.134 78.7254C118.774 78.473 119.265 78.2949 119.59 78.1815C119.752 78.1249 119.873 78.0844 119.951 78.059C119.99 78.0463 120.017 78.0374 120.034 78.0321C120.043 78.0294 120.048 78.0277 120.051 78.0268C120.052 78.0264 120.053 78.0262 120.053 78.0262C120.053 78.0262 120.053 78.0261 120.053 78.0262C120.053 78.0262 120.051 78.0268 120.051 78.0268C120.05 78.027 120.051 78.0268 119.463 76.1151C118.875 74.2034 118.875 74.2036 118.874 74.2038C118.874 74.2039 118.873 74.2041 118.873 74.2043C118.872 74.2046 118.87 74.205 118.869 74.2054C118.866 74.2063 118.863 74.2074 118.858 74.2088C118.85 74.2115 118.838 74.215 118.824 74.2196C118.796 74.2286 118.756 74.2413 118.705 74.2579C118.604 74.291 118.459 74.3395 118.273 74.4047C117.899 74.5349 117.359 74.7315 116.667 75.004C115.284 75.549 113.298 76.3978 110.839 77.6265C105.92 80.0838 99.1077 84.062 91.4504 90.1708L92.6976 91.7342ZM75.4222 115.804L73.4817 115.32L68.3228 135.999L70.2633 136.484L72.2038 136.968L77.3628 116.288L75.4222 115.804Z" fill="#4D8C26"/>
<path d="M61.5483 106.983C62.627 107.221 63.694 106.539 63.9316 105.46C64.1691 104.381 63.4872 103.314 62.4084 103.077L61.9784 105.03L61.5483 106.983ZM29.4923 46.555L29.5767 44.5568L27.5789 44.4724L27.4941 46.4701L29.4923 46.555ZM85.3997 64.535C86.1959 65.3006 87.462 65.2758 88.2275 64.4795C88.9931 63.6833 88.9683 62.4173 88.1721 61.6517L86.7859 63.0933L85.3997 64.535ZM49.6164 58.538C48.5685 58.1887 47.4359 58.755 47.0866 59.8029C46.7373 60.8508 47.3036 61.9835 48.3515 62.3328L48.9839 60.4354L49.6164 58.538ZM66.0782 75.035C66.8016 75.8697 68.0647 75.9599 68.8994 75.2365C69.7342 74.5131 69.8244 73.25 69.101 72.4153L67.5896 73.7251L66.0782 75.035ZM61.9784 105.03C62.4084 103.077 62.4081 103.077 62.4084 103.077C62.4085 103.077 62.4095 103.077 62.4096 103.077C62.4096 103.077 62.4099 103.077 62.4096 103.077C62.4095 103.077 62.4085 103.077 62.4084 103.077C62.4064 103.076 62.4024 103.075 62.3963 103.074C62.384 103.071 62.3637 103.066 62.3356 103.06C62.2794 103.047 62.1923 103.026 62.0771 102.997C61.8466 102.939 61.5039 102.85 61.0711 102.726C60.2044 102.478 58.9825 102.095 57.5798 101.556C54.7494 100.47 51.2979 98.7973 48.5284 96.4234L47.2268 97.9419L45.9253 99.4604C49.1842 102.254 53.1085 104.125 56.1467 105.291C57.6784 105.879 59.014 106.298 59.9713 106.572C60.4505 106.709 60.8364 106.81 61.1064 106.877C61.2415 106.911 61.3477 106.937 61.4223 106.954C61.4595 106.963 61.4889 106.97 61.51 106.974C61.5206 106.977 61.5291 106.979 61.5355 106.98C61.5387 106.981 61.5413 106.982 61.5435 106.982C61.5445 106.982 61.5455 106.982 61.5463 106.983C61.5467 106.983 61.5481 106.983 61.5483 106.983C61.5488 106.983 61.5483 106.983 61.9784 105.03ZM47.2268 97.9419L48.5284 96.4234C39.4401 88.6334 35.1217 76.3382 33.1186 65.7014C32.1243 60.4214 31.717 55.6388 31.5588 52.1766C31.4798 50.4472 31.4632 49.0516 31.4661 48.0935C31.4676 47.6146 31.4739 47.2453 31.4798 46.9986C31.4827 46.8753 31.4855 46.7826 31.4875 46.7223C31.4885 46.6921 31.4893 46.67 31.4899 46.6562C31.4901 46.6493 31.4903 46.6445 31.4904 46.6417C31.4905 46.6404 31.4905 46.6395 31.4905 46.6392C31.4905 46.6393 31.4905 46.639 31.4905 46.6392C31.4905 46.6395 31.4905 46.6398 29.4923 46.555C27.4941 46.4701 27.4941 46.4708 27.494 46.4716C27.494 46.4721 27.494 46.4731 27.494 46.474C27.4939 46.4758 27.4938 46.4781 27.4937 46.481C27.4934 46.4867 27.4931 46.4946 27.4928 46.5045C27.492 46.5244 27.491 46.5526 27.4898 46.589C27.4873 46.6618 27.4842 46.7672 27.4809 46.9037C27.4744 47.1765 27.4677 47.5734 27.4661 48.0813C27.4631 49.097 27.4807 50.5579 27.563 52.3591C27.7274 55.9582 28.1505 60.9339 29.1877 66.4416C31.2476 77.3804 35.7965 90.7786 45.9253 99.4604L47.2268 97.9419ZM29.4923 46.555C29.4079 48.5532 29.4077 48.5532 29.4077 48.5532C29.4073 48.5532 29.4079 48.5532 29.4077 48.5532C29.4085 48.5532 29.4108 48.5533 29.4129 48.5534C29.4171 48.5536 29.4238 48.5539 29.433 48.5543C29.4514 48.5551 29.4798 48.5564 29.5179 48.5583C29.594 48.5619 29.7089 48.5676 29.8605 48.5757C30.1637 48.5918 30.6135 48.6176 31.1932 48.6557C32.3528 48.7318 34.0313 48.8572 36.0954 49.0536C40.2264 49.4466 45.888 50.1226 52.0173 51.2536C58.1532 52.3858 64.7157 53.9664 70.664 56.1565C76.6383 58.3561 81.8458 61.1178 85.3997 64.535L86.7859 63.0933L88.1721 61.6517C84.0475 57.6857 78.254 54.6885 72.046 52.4028C65.8121 50.1076 59.011 48.4765 52.7431 47.32C46.4687 46.1622 40.6863 45.4723 36.4743 45.0716C34.3669 44.8711 32.6491 44.7427 31.4554 44.6643C30.8584 44.6251 30.3922 44.5983 30.0736 44.5813C29.9142 44.5728 29.7918 44.5668 29.7083 44.5628C29.6665 44.5608 29.6345 44.5593 29.6125 44.5583C29.6015 44.5578 29.593 44.5575 29.587 44.5572C29.584 44.5571 29.5817 44.557 29.58 44.5569C29.5791 44.5569 29.5783 44.5568 29.5779 44.5568C29.5772 44.5568 29.5767 44.5568 29.4923 46.555ZM48.9839 60.4354C48.3515 62.3328 48.3519 62.3329 48.3515 62.3328C48.3514 62.3327 48.3501 62.3323 48.3499 62.3322C48.3494 62.3321 48.3491 62.3319 48.3487 62.3318C48.3481 62.3316 48.3477 62.3315 48.3476 62.3314C48.3474 62.3314 48.348 62.3316 48.3499 62.3322C48.3537 62.3335 48.3618 62.3363 48.374 62.3406C48.3982 62.3491 48.439 62.3636 48.4957 62.3844C48.6092 62.4262 48.7862 62.4934 49.0216 62.5888C49.4925 62.7797 50.1969 63.0836 51.0938 63.5233C52.8877 64.4026 55.45 65.8242 58.4533 67.9694L59.6157 66.3419L60.7782 64.7145C57.5796 62.4298 54.826 60.898 52.8544 59.9316C51.8686 59.4483 51.0779 59.1062 50.5244 58.8818C50.2477 58.7696 50.0301 58.6868 49.8771 58.6305C49.8005 58.6024 49.7401 58.5808 49.6964 58.5655C49.6746 58.5579 49.657 58.5518 49.6436 58.5472C49.6369 58.5449 49.6313 58.543 49.6268 58.5415C49.6245 58.5407 49.6225 58.5401 49.6208 58.5395C49.6199 58.5392 49.6191 58.5389 49.6184 58.5387C49.618 58.5386 49.6166 58.5381 49.6164 58.538C49.6159 58.5379 49.6164 58.538 48.9839 60.4354ZM59.6157 66.3419L58.4533 67.9694C60.3924 69.3545 62.2974 71.1137 63.7389 72.5552C64.4542 73.2705 65.0439 73.896 65.4532 74.3409C65.6577 74.5632 65.8167 74.7398 65.9232 74.8594C65.9765 74.9192 66.0166 74.9647 66.0427 74.9944C66.0558 75.0093 66.0654 75.0202 66.0713 75.0271C66.0743 75.0305 66.0764 75.0329 66.0775 75.0342C66.0781 75.0348 66.0781 75.0349 66.0782 75.035C66.0781 75.0349 66.0782 75.035 67.5896 73.7251C69.101 72.4153 69.1011 72.4154 69.101 72.4153C69.1009 72.4152 69.1004 72.4146 69.1003 72.4145C69.1 72.4141 69.0996 72.4137 69.0992 72.4132C69.0984 72.4123 69.0973 72.4111 69.0961 72.4096C69.0935 72.4067 69.09 72.4027 69.0856 72.3976C69.0767 72.3875 69.0642 72.3732 69.0482 72.3549C69.016 72.3183 68.9697 72.2657 68.9099 72.1986C68.7903 72.0644 68.617 71.8719 68.397 71.6327C67.9572 71.1547 67.3287 70.4882 66.5673 69.7268C65.0556 68.215 62.9737 66.2827 60.7782 64.7145L59.6157 66.3419Z" fill="#4D8C26"/>
</svg>
