<svg width="170" height="170" viewBox="0 0 170 170" fill="none" xmlns="http://www.w3.org/2000/svg">
<path d="M170 85C170 131.944 131.944 170 85 170C38.0558 170 0 131.944 0 85C0 38.0558 38.0558 0 85 0C131.944 0 170 38.0558 170 85Z" fill="#FFE7E7"/>
<path d="M74.2785 70.8334L75.9902 71.8678L76.2785 71.3908V70.8334H74.2785ZM64.705 34.0001V32.0001H62.705V34.0001H64.705ZM104.407 34.0001H106.407V32.0001H104.407V34.0001ZM95.9597 70.8334H93.9597V71.4893L94.3482 72.0179L95.9597 70.8334ZM114.34 99.2179C114.994 100.108 116.246 100.299 117.136 99.6449C118.026 98.9908 118.217 97.739 117.563 96.8489L115.951 98.0334L114.34 99.2179ZM95.9597 135.733C97.0643 135.733 97.9597 134.838 97.9597 133.733C97.9597 132.629 97.0643 131.733 95.9597 131.733V133.733V135.733ZM104.989 102.865C104.215 102.077 102.949 102.066 102.161 102.84C101.373 103.614 101.361 104.88 102.135 105.668L103.562 104.267L104.989 102.865ZM125.506 129.468C126.28 130.256 127.546 130.268 128.334 129.494C129.122 128.72 129.134 127.454 128.36 126.665L126.933 128.067L125.506 129.468ZM128.36 105.668C129.134 104.88 129.122 103.614 128.334 102.84C127.546 102.066 126.28 102.077 125.506 102.865L126.933 104.267L128.36 105.668ZM102.135 126.665C101.361 127.454 101.373 128.72 102.161 129.494C102.949 130.268 104.215 130.256 104.989 129.468L103.562 128.067L102.135 126.665ZM43.6013 121.596L45.313 122.63L75.9902 71.8678L74.2785 70.8334L72.5668 69.799L41.8896 120.561L43.6013 121.596ZM74.2785 70.8334H76.2785V50.1202H74.2785H72.2785V70.8334H74.2785ZM64.705 40.5467H66.705V34.0001H64.705H62.705V40.5467H64.705ZM64.705 34.0001V36.0001H104.407V34.0001V32.0001H64.705V34.0001ZM104.407 34.0001H102.407V41.1098H104.407H106.407V34.0001H104.407ZM95.9597 49.557H93.9597V70.8334H95.9597H97.9597V49.557H95.9597ZM95.9597 70.8334L94.3482 72.0179L114.34 99.2179L115.951 98.0334L117.563 96.8489L97.5712 69.6489L95.9597 70.8334ZM50.4482 133.733V135.733H95.9597V133.733V131.733H50.4482V133.733ZM103.562 104.267L102.135 105.668L125.506 129.468L126.933 128.067L128.36 126.665L104.989 102.865L103.562 104.267ZM126.933 104.267L125.506 102.865L102.135 126.665L103.562 128.067L104.989 129.468L128.36 105.668L126.933 104.267ZM104.407 41.1098H102.407C102.407 42.3379 101.411 43.3334 100.183 43.3334V45.3334V47.3334C103.62 47.3334 106.407 44.547 106.407 41.1098H104.407ZM69.4918 45.3334V43.3334C67.9527 43.3334 66.705 42.0857 66.705 40.5467H64.705H62.705C62.705 44.2949 65.7436 47.3334 69.4918 47.3334V45.3334ZM100.183 45.3334V43.3334C96.7461 43.3334 93.9597 46.1198 93.9597 49.557H95.9597H97.9597C97.9597 48.3289 98.9552 47.3334 100.183 47.3334V45.3334ZM74.2785 50.1202H76.2785C76.2785 46.3719 73.24 43.3334 69.4918 43.3334V45.3334V47.3334C71.0309 47.3334 72.2785 48.5811 72.2785 50.1202H74.2785ZM43.6013 121.596L41.8896 120.561C37.862 127.226 42.661 135.733 50.4482 135.733V133.733V131.733C45.7759 131.733 42.8964 126.629 45.313 122.63L43.6013 121.596Z" fill="#B23F42"/>
</svg>
