<svg width="170" height="170" viewBox="0 0 170 170" fill="none" xmlns="http://www.w3.org/2000/svg">
<path d="M170 85C170 131.944 131.944 170 85 170C38.0558 170 0 131.944 0 85C0 38.0558 38.0558 0 85 0C131.944 0 170 38.0558 170 85Z" fill="#E3F6FF"/>
<path d="M122.273 117.369C121.168 117.369 120.273 118.264 120.273 119.369C120.273 120.474 121.168 121.369 122.273 121.369V119.369V117.369ZM87.4699 121.369C88.5745 121.369 89.4699 120.474 89.4699 119.369C89.4699 118.264 88.5745 117.369 87.4699 117.369V119.369V121.369ZM98.6452 109.877C98.6452 108.773 97.7498 107.877 96.6452 107.877C95.5406 107.877 94.6452 108.773 94.6452 109.877H96.6452H98.6452ZM96.6452 141.516H94.6452V147.841L98.2816 142.666L96.6452 141.516ZM104.871 129.81L106.445 128.576L104.784 126.456L103.235 128.66L104.871 129.81ZM114.047 141.516L112.473 142.75L116.047 147.31V141.516H114.047ZM116.047 109.877C116.047 108.773 115.151 107.877 114.047 107.877C112.942 107.877 112.047 108.773 112.047 109.877H114.047H116.047ZM34 50.3338H32V114.369H34H36V50.3338H34ZM39 45.3338V47.3338H133.092V45.3338V43.3338H39V45.3338ZM138.092 50.3338H136.092V114.369H138.092H140.092V50.3338H138.092ZM133.092 119.369V117.369H122.273V119.369V121.369H133.092V119.369ZM39 119.369V121.369H87.4699V119.369V117.369H39V119.369ZM96.6452 109.877H94.6452V141.516H96.6452H98.6452V109.877H96.6452ZM96.6452 141.516L98.2816 142.666L106.508 130.96L104.871 129.81L103.235 128.66L95.0088 140.366L96.6452 141.516ZM104.871 129.81L103.297 131.044L112.473 142.75L114.047 141.516L115.621 140.283L106.445 128.576L104.871 129.81ZM114.047 141.516H116.047V109.877H114.047H112.047V141.516H114.047ZM138.092 114.369H136.092C136.092 116.026 134.749 117.369 133.092 117.369V119.369V121.369C136.958 121.369 140.092 118.235 140.092 114.369H138.092ZM133.092 45.3338V47.3338C134.749 47.3338 136.092 48.6769 136.092 50.3338H138.092H140.092C140.092 46.4678 136.958 43.3338 133.092 43.3338V45.3338ZM34 114.369H32C32 118.235 35.134 121.369 39 121.369V119.369V117.369C37.3431 117.369 36 116.026 36 114.369H34ZM34 50.3338H36C36 48.6769 37.3431 47.3338 39 47.3338V45.3338V43.3338C35.134 43.3338 32 46.4678 32 50.3338H34Z" fill="#2C88B5"/>
<mask id="mask0_3021_3146" style="mask-type:luminance" maskUnits="userSpaceOnUse" x="92" y="89" width="26" height="27">
<path d="M117.8 102.6C117.8 109.6 112.2 115.3 105.2 115.3C98.2 115.3 92.5 109.6 92.5 102.6C92.5 95.6001 98.2 89.9001 105.2 89.9001C112.2 89.9001 117.8 95.6001 117.8 102.6Z" fill="white"/>
</mask>
<g mask="url(#mask0_3021_3146)">
<path d="M117.844 102.6H113.844C113.844 107.381 109.969 111.256 105.189 111.256V115.256V119.256C114.387 119.256 121.844 111.799 121.844 102.6H117.844ZM105.189 115.256V111.256C100.408 111.256 96.5332 107.381 96.5332 102.6H92.5332H88.5332C88.5332 111.799 95.9902 119.256 105.189 119.256V115.256ZM92.5332 102.6H96.5332C96.5332 97.8199 100.408 93.9447 105.189 93.9447V89.9447V85.9447C95.9902 85.9447 88.5332 93.4016 88.5332 102.6H92.5332ZM105.189 89.9447V93.9447C109.969 93.9447 113.844 97.8199 113.844 102.6H117.844H121.844C121.844 93.4016 114.387 85.9447 105.189 85.9447V89.9447Z" fill="#2C88B5"/>
</g>
<path d="M49.905 59.9851L50.2461 60.3507L50.2524 60.3448L50.2585 60.3387L49.905 59.9851ZM51.385 59.9851L51.0195 60.3263L51.0312 60.3389L51.0438 60.3507L51.385 59.9851ZM51.385 75.0051L51.0314 74.6516L51.0253 74.6577L51.0195 74.664L51.385 75.0051ZM50.645 75.3051V74.8051C50.4788 74.8051 50.361 74.754 50.2585 74.6516L49.905 75.0051L49.5514 75.3587C49.849 75.6563 50.2245 75.8051 50.645 75.8051V75.3051ZM49.905 75.0051L50.2585 74.6516C50.1561 74.5492 50.105 74.4313 50.105 74.2651H49.605H49.105C49.105 74.6856 49.2538 75.0611 49.5514 75.3587L49.905 75.0051ZM49.605 74.2651H50.105V60.7251H49.605H49.105V74.2651H49.605ZM49.605 60.7251H50.105C50.105 60.5385 50.1602 60.4308 50.2461 60.3507L49.905 59.9851L49.5638 59.6196C49.2497 59.9128 49.105 60.2984 49.105 60.7251H49.605ZM49.905 59.9851L50.2585 60.3387C50.361 60.2363 50.4788 60.1851 50.645 60.1851V59.6851V59.1851C50.2245 59.1851 49.849 59.334 49.5514 59.6316L49.905 59.9851ZM50.645 59.6851V60.1851C50.8316 60.1851 50.9393 60.2404 51.0195 60.3263L51.385 59.9851L51.7505 59.644C51.4573 59.3299 51.0717 59.1851 50.645 59.1851V59.6851ZM51.385 59.9851L51.0438 60.3507C51.1297 60.4308 51.185 60.5385 51.185 60.7251H51.685H52.185C52.185 60.2984 52.0402 59.9128 51.7261 59.6196L51.385 59.9851ZM51.685 60.7251H51.185V74.2651H51.685H52.185V60.7251H51.685ZM51.685 74.2651H51.185C51.185 74.4313 51.1338 74.5492 51.0314 74.6516L51.385 75.0051L51.7385 75.3587C52.0361 75.0611 52.185 74.6856 52.185 74.2651H51.685ZM51.385 75.0051L51.0195 74.664C50.9393 74.7499 50.8316 74.8051 50.645 74.8051V75.3051V75.8051C51.0717 75.8051 51.4573 75.6604 51.7505 75.3463L51.385 75.0051ZM54.9192 72.3251L55.3793 72.1293L55.3752 72.1197L55.3706 72.1102L54.9192 72.3251ZM54.9192 71.5451L54.4926 71.2844L54.4872 71.2932L54.4821 71.3023L54.9192 71.5451ZM55.6392 71.0851L55.7373 71.5755L55.7477 71.5732L55.6392 71.0851ZM56.3392 71.2051L56.0857 71.6361L56.1004 71.6447L56.1156 71.6523L56.3392 71.2051ZM56.8792 71.7651L56.4273 71.9792L56.4284 71.9815L56.8792 71.7651ZM57.6592 72.6851L57.3522 73.0799L57.3592 73.0851L57.6592 72.6851ZM62.3992 73.3251L62.2274 72.8556L62.2236 72.857L62.3992 73.3251ZM63.7192 72.4651L64.0922 72.7982L64.0979 72.7916L63.7192 72.4651ZM63.3792 69.1451L63.0214 69.4944L63.0256 69.4987L63.3792 69.1451ZM60.6592 68.1051L60.7115 67.6079L60.7074 67.6075L60.6592 68.1051ZM58.0792 59.9851L57.9036 59.517L57.9012 59.5179L58.0792 59.9851ZM63.0392 59.8451L62.8625 60.3129L62.8659 60.3141L63.0392 59.8451ZM65.8192 62.2051L65.3922 62.4655L65.3974 62.4736L65.8192 62.2051ZM66.0392 63.0451L65.5447 62.971L65.5431 62.9818L65.5419 62.9928L66.0392 63.0451ZM65.6592 63.6451L65.9262 64.0679L65.9308 64.0649L65.6592 63.6451ZM64.1792 63.2251L63.7413 63.4667L63.7465 63.4756L64.1792 63.2251ZM62.3192 61.6251L62.1387 62.0914L62.1453 62.094L62.152 62.0963L62.3192 61.6251ZM60.8592 61.3851L60.8524 61.8851H60.8592V61.3851ZM58.3792 61.9451L58.6235 62.3814L58.6301 62.3776L58.3792 61.9451ZM57.6792 64.8451L57.2385 65.0812L57.2436 65.0907L57.2491 65.1L57.6792 64.8451ZM58.8192 65.7851L58.6 66.2345L58.6042 66.2366L58.8192 65.7851ZM64.9192 67.8051L64.5798 68.1724L64.5856 68.1776L64.9192 67.8051ZM65.7792 72.9651L65.345 72.717L65.3407 72.725L65.7792 72.9651ZM64.5192 74.3851L64.8108 74.7913L64.8127 74.7899L64.5192 74.3851ZM62.7192 75.2251L62.5868 74.743L62.5844 74.7436L62.7192 75.2251ZM60.6392 75.5051V75.0051C59.8389 75.0051 59.0808 74.8803 58.3622 74.6324L58.1992 75.1051L58.0362 75.5778C58.8642 75.8633 59.7328 76.0051 60.6392 76.0051V75.5051ZM58.1992 75.1051L58.3622 74.6324C57.6411 74.3838 57.0225 74.0391 56.5002 73.6017L56.1792 73.9851L55.8582 74.3685C56.4825 74.8912 57.2106 75.2931 58.0362 75.5778L58.1992 75.1051ZM56.1792 73.9851L56.5002 73.6017C55.9813 73.1674 55.6121 72.6765 55.3793 72.1293L54.9192 72.3251L54.4591 72.5209C54.7596 73.2271 55.2304 73.8429 55.8582 74.3685L56.1792 73.9851ZM54.9192 72.3251L55.3706 72.1102C55.2964 71.9542 55.3125 71.8667 55.3563 71.7879L54.9192 71.5451L54.4821 71.3023C54.2592 71.7035 54.2753 72.136 54.4678 72.5401L54.9192 72.3251ZM54.9192 71.5451L55.3458 71.8059C55.4049 71.7093 55.5098 71.621 55.7373 71.5755L55.6392 71.0851L55.5411 70.5948C55.1019 70.6827 54.7269 70.901 54.4926 71.2844L54.9192 71.5451ZM55.6392 71.0851L55.7477 71.5732C55.855 71.5494 55.9598 71.562 56.0857 71.6361L56.3392 71.2051L56.5927 70.7742C56.2653 70.5816 55.9034 70.5142 55.5307 70.597L55.6392 71.0851ZM56.3392 71.2051L56.1156 71.6523C56.2509 71.72 56.3529 71.822 56.4273 71.9792L56.8792 71.7651L57.3311 71.5511C57.1655 71.2015 56.9075 70.9303 56.5628 70.7579L56.3392 71.2051ZM56.8792 71.7651L56.4284 71.9815C56.6288 72.399 56.9451 72.7632 57.3522 73.0799L57.6592 72.6851L57.9662 72.2904C57.6533 72.0471 57.4496 71.7979 57.33 71.5488L56.8792 71.7651ZM57.6592 72.6851L57.3592 73.0851C57.7823 73.4024 58.2788 73.652 58.8411 73.8395L58.9992 73.3651L59.1573 72.8908C58.6796 72.7316 58.2828 72.5278 57.9592 72.2851L57.6592 72.6851ZM58.9992 73.3651L58.8411 73.8395C59.4144 74.0306 60.0146 74.1251 60.6392 74.1251V73.6251V73.1251C60.1171 73.1251 59.624 73.0464 59.1573 72.8908L58.9992 73.3651ZM60.6392 73.6251V74.1251C61.3318 74.1251 61.9788 74.0168 62.5748 73.7933L62.3992 73.3251L62.2236 72.857C61.7529 73.0335 61.2266 73.1251 60.6392 73.1251V73.6251ZM62.3992 73.3251L62.571 73.7947C63.1823 73.571 63.6958 73.2422 64.0922 72.7982L63.7192 72.4651L63.3462 72.1321C63.076 72.4348 62.7095 72.6792 62.2274 72.8556L62.3992 73.3251ZM63.7192 72.4651L64.0979 72.7916C64.5173 72.3051 64.7192 71.7125 64.7192 71.0451H64.2192H63.7192C63.7192 71.4978 63.5878 71.8518 63.3405 72.1387L63.7192 72.4651ZM64.2192 71.0451H64.7192C64.7192 70.1893 64.3742 69.433 63.7328 68.7916L63.3792 69.1451L63.0256 69.4987C63.5042 69.9773 63.7192 70.4876 63.7192 71.0451H64.2192ZM63.3792 69.1451L63.737 68.7959C63.0714 68.1141 62.0264 67.7463 60.7115 67.6079L60.6592 68.1051L60.6069 68.6024C61.8253 68.7306 62.5936 69.0562 63.0214 69.4944L63.3792 69.1451ZM60.6592 68.1051L60.7074 67.6075C59.1231 67.4541 57.9314 66.9931 57.085 66.2659L56.7592 66.6451L56.4334 67.0244C57.4803 67.9239 58.8886 68.4361 60.611 68.6028L60.6592 68.1051ZM56.7592 66.6451L57.085 66.2659C56.2439 65.5432 55.8392 64.6728 55.8392 63.6251H55.3392H54.8392C54.8392 64.9774 55.3812 66.1204 56.4334 67.0244L56.7592 66.6451ZM55.3392 63.6251H55.8392C55.8392 62.8449 56.0554 62.2125 56.4688 61.6985L56.0792 61.3851L55.6896 61.0717C55.1164 61.7844 54.8392 62.6454 54.8392 63.6251H55.3392ZM56.0792 61.3851L56.4688 61.6985C56.899 61.1637 57.4882 60.7453 58.2572 60.4524L58.0792 59.9851L57.9012 59.5179C56.9902 59.8649 56.2461 60.3799 55.6896 61.0717L56.0792 61.3851ZM58.0792 59.9851L58.2548 60.4533C59.0446 60.1571 59.9308 60.0051 60.9192 60.0051V59.5051V59.0051C59.8276 59.0051 58.8204 59.1732 57.9036 59.517L58.0792 59.9851ZM60.9192 59.5051V60.0051C61.6877 60.0051 62.3318 60.1124 62.8625 60.3129L63.0392 59.8451L63.2159 59.3774C62.5466 59.1245 61.7774 59.0051 60.9192 59.0051V59.5051ZM63.0392 59.8451L62.8659 60.3141C63.4261 60.5212 63.9049 60.8041 64.3084 61.16L64.6392 60.7851L64.97 60.4102C64.4668 59.9662 63.879 59.6224 63.2125 59.3761L63.0392 59.8451ZM64.6392 60.7851L64.3084 61.16C64.722 61.525 65.0834 61.9591 65.3922 62.4655L65.8192 62.2051L66.2461 61.9448C65.8882 61.3579 65.4631 60.8453 64.97 60.4102L64.6392 60.7851ZM65.8192 62.2051L65.3974 62.4736C65.5385 62.6953 65.5622 62.8546 65.5447 62.971L66.0392 63.0451L66.5337 63.1193C66.5962 62.7023 66.4732 62.3016 66.241 61.9367L65.8192 62.2051ZM66.0392 63.0451L65.5419 62.9928C65.5322 63.0858 65.4961 63.1551 65.3876 63.2253L65.6592 63.6451L65.9308 64.0649C66.2756 63.8418 66.4929 63.5111 66.5365 63.0975L66.0392 63.0451ZM65.6592 63.6451L65.3922 63.2224C65.2675 63.3011 65.1479 63.3187 64.9908 63.2687L64.8392 63.7451L64.6876 64.2216C65.1171 64.3583 65.5442 64.3091 65.9262 64.0679L65.6592 63.6451ZM64.8392 63.7451L64.9908 63.2687C64.8093 63.2109 64.6928 63.1143 64.6119 62.9746L64.1792 63.2251L63.7465 63.4756C63.9589 63.8426 64.2824 64.0927 64.6876 64.2216L64.8392 63.7451ZM64.1792 63.2251L64.617 62.9836C64.3778 62.55 64.0819 62.1762 63.7273 61.8678L63.3992 62.2451L63.0711 62.6224C63.3299 62.8474 63.5538 63.1269 63.7413 63.4667L64.1792 63.2251ZM63.3992 62.2451L63.7273 61.8678C63.3697 61.5569 62.9541 61.3199 62.4864 61.1539L62.3192 61.6251L62.152 62.0963C62.511 62.2237 62.8153 62.4 63.0711 62.6224L63.3992 62.2451ZM62.3192 61.6251L62.4997 61.1588C62.0158 60.9715 61.4653 60.8851 60.8592 60.8851V61.3851V61.8851C61.3731 61.8851 61.7959 61.9587 62.1387 62.0914L62.3192 61.6251ZM60.8592 61.3851L60.866 60.8852C59.8138 60.871 58.8923 61.0695 58.1283 61.5126L58.3792 61.9451L58.6301 62.3776C59.1995 62.0474 59.9312 61.8727 60.8524 61.8851L60.8592 61.3851ZM58.3792 61.9451L58.1349 61.5089C57.7342 61.7333 57.4135 62.032 57.1957 62.411C56.9783 62.7892 56.8792 63.2198 56.8792 63.6851H57.3792H57.8792C57.8792 63.3637 57.9467 63.1111 58.0627 62.9093C58.1783 62.7082 58.3576 62.5304 58.6235 62.3814L58.3792 61.9451ZM57.3792 63.6851H56.8792C56.8792 64.1724 57.0019 64.6397 57.2385 65.0812L57.6792 64.8451L58.1199 64.609C57.9565 64.3039 57.8792 63.9979 57.8792 63.6851H57.3792ZM57.6792 64.8451L57.2491 65.1C57.53 65.5741 58.0033 65.9435 58.6 66.2345L58.8192 65.7851L59.0384 65.3357C58.5418 65.0935 58.2551 64.8361 58.1093 64.5902L57.6792 64.8451ZM58.8192 65.7851L58.6042 66.2366C59.2393 66.539 60.1047 66.7334 61.1682 66.8425L61.2192 66.3451L61.2702 65.8477C60.2536 65.7435 59.5191 65.5646 59.0342 65.3337L58.8192 65.7851ZM61.2192 66.3451L61.1682 66.8425C62.6824 66.9952 63.8022 67.4537 64.5798 68.1724L64.9192 67.8051L65.2586 67.4379C64.2761 66.5299 62.9293 66.015 61.2702 65.8477L61.2192 66.3451ZM64.9192 67.8051L64.5856 68.1776C65.3617 68.8726 65.7592 69.7913 65.7592 70.9851H66.2592H66.7592C66.7592 69.539 66.2634 68.3377 65.2528 67.4327L64.9192 67.8051ZM66.2592 70.9851H65.7592C65.7592 71.6737 65.6147 72.245 65.345 72.717L65.7792 72.9651L66.2133 73.2132C66.5836 72.5652 66.7592 71.8165 66.7592 70.9851H66.2592ZM65.7792 72.9651L65.3407 72.725C65.0707 73.2179 64.7011 73.6357 64.2257 73.9803L64.5192 74.3851L64.8127 74.7899C65.404 74.3612 65.8744 73.8323 66.2177 73.2053L65.7792 72.9651ZM64.5192 74.3851L64.2276 73.979C63.7604 74.3144 63.2155 74.5704 62.5868 74.743L62.7192 75.2251L62.8516 75.7073C63.5829 75.5065 64.238 75.2025 64.8108 74.7913L64.5192 74.3851ZM62.7192 75.2251L62.5844 74.7436C61.9633 74.9175 61.3155 75.0051 60.6392 75.0051V75.5051V76.0051C61.4029 76.0051 62.1417 75.906 62.854 75.7066L62.7192 75.2251ZM73.4487 74.9251L73.2587 75.3876L73.2641 75.3898L73.4487 74.9251ZM70.9287 73.2651L70.5685 73.612L70.5752 73.6187L70.9287 73.2651ZM69.3087 70.7251L68.8432 70.9076L68.8441 70.9097L69.3087 70.7251ZM73.4487 60.0851L73.6333 60.5498L73.6388 60.5476L73.4487 60.0851ZM79.8687 60.0851L79.6764 60.5467L79.6841 60.5498L79.8687 60.0851ZM82.3887 61.7451L82.0319 62.0954L82.0352 62.0987L82.3887 61.7451ZM84.0287 70.7251L84.4934 70.9097L84.4943 70.9076L84.0287 70.7251ZM82.3887 73.2651L82.7423 73.6187L82.7456 73.6154L82.3887 73.2651ZM79.8687 74.9251L80.0555 75.3889L80.0588 75.3876L79.8687 74.9251ZM79.0487 73.1651L79.2447 73.6252L79.2487 73.6234L79.0487 73.1651ZM80.9487 71.8651L81.3066 72.2143L81.3108 72.21L80.9487 71.8651ZM82.1687 69.9051L81.7033 69.7223L81.7006 69.7296L82.1687 69.9051ZM82.1687 65.0651L81.7005 65.2407L81.7034 65.248L82.1687 65.0651ZM80.9487 63.1251L80.5866 63.47L80.5908 63.4743L80.9487 63.1251ZM79.0487 61.8251L78.8528 62.2851L78.8558 62.2864L79.0487 61.8251ZM74.2687 61.8251L74.0758 61.3638L74.0728 61.3651L74.2687 61.8251ZM72.3887 71.8651L72.0222 72.2055L72.0308 72.2143L72.3887 71.8651ZM74.2687 73.1651L74.0656 73.6221L74.0758 73.6264L74.2687 73.1651ZM76.6687 75.5051V75.0051C75.551 75.0051 74.5413 74.8211 73.6333 74.4604L73.4487 74.9251L73.2641 75.3898C74.3029 75.8024 75.4398 76.0051 76.6687 76.0051V75.5051ZM73.4487 74.9251L73.6388 74.4627C72.7233 74.0864 71.9397 73.569 71.2823 72.9116L70.9287 73.2651L70.5752 73.6187C71.3311 74.3746 72.2275 74.9638 73.2587 75.3876L73.4487 74.9251ZM70.9287 73.2651L71.2889 72.9183C70.6427 72.2473 70.1373 71.4564 69.7734 70.5405L69.3087 70.7251L68.8441 70.9097C69.2535 71.9405 69.828 72.843 70.5685 73.612L70.9287 73.2651ZM69.3087 70.7251L69.7743 70.5427C69.4127 69.6201 69.2287 68.6027 69.2287 67.4851H68.7287H68.2287C68.2287 68.7142 68.4314 69.8569 68.8432 70.9076L69.3087 70.7251ZM68.7287 67.4851H69.2287C69.2287 66.3674 69.4127 65.3577 69.7734 64.4497L69.3087 64.2651L68.8441 64.0805C68.4314 65.1193 68.2287 66.2562 68.2287 67.4851H68.7287ZM69.3087 64.2651L69.7734 64.4497C70.137 63.5346 70.6415 62.7518 71.2856 62.0953L70.9287 61.7451L70.5719 61.3949C69.8293 62.1517 69.2538 63.049 68.8441 64.0805L69.3087 64.2651ZM70.9287 61.7451L71.2856 62.0953C71.9416 61.4269 72.7222 60.9118 73.6333 60.5498L73.4487 60.0851L73.2641 59.6204C72.2286 60.0318 71.3292 60.6233 70.5719 61.3949L70.9287 61.7451ZM73.4487 60.0851L73.6388 60.5476C74.5453 60.1751 75.5531 59.9851 76.6687 59.9851V59.4851V58.9851C75.4377 58.9851 74.2989 59.1952 73.2587 59.6227L73.4487 60.0851ZM76.6687 59.4851V59.9851C77.7845 59.9851 78.7847 60.1752 79.6764 60.5467L79.8687 60.0851L80.061 59.6236C79.0328 59.1951 77.8996 58.9851 76.6687 58.9851V59.4851ZM79.8687 60.0851L79.6841 60.5498C80.5952 60.9117 81.3759 61.427 82.0319 62.0954L82.3887 61.7451L82.7456 61.3949C81.9882 60.6233 81.0889 60.0318 80.0533 59.6204L79.8687 60.0851ZM82.3887 61.7451L82.0352 62.0987C82.6914 62.7549 83.2013 63.5366 83.5641 64.4497L84.0287 64.2651L84.4934 64.0805C84.0828 63.047 83.4994 62.1487 82.7423 61.3916L82.3887 61.7451ZM84.0287 64.2651L83.5641 64.4497C83.9247 65.3577 84.1087 66.3674 84.1087 67.4851H84.6087H85.1087C85.1087 66.2562 84.9061 65.1193 84.4934 64.0805L84.0287 64.2651ZM84.6087 67.4851H84.1087C84.1087 68.6027 83.9248 69.6201 83.5632 70.5427L84.0287 70.7251L84.4943 70.9076C84.906 69.8569 85.1087 68.7142 85.1087 67.4851H84.6087ZM84.0287 70.7251L83.5641 70.5405C83.201 71.4544 82.6902 72.2442 82.0319 72.9149L82.3887 73.2651L82.7456 73.6154C83.5006 72.8461 84.0831 71.9425 84.4934 70.9097L84.0287 70.7251ZM82.3887 73.2651L82.0352 72.9116C81.3777 73.569 80.5941 74.0864 79.6787 74.4627L79.8687 74.9251L80.0588 75.3876C81.09 74.9638 81.9864 74.3746 82.7423 73.6187L82.3887 73.2651ZM79.8687 74.9251L79.6819 74.4613C78.7887 74.8211 77.7866 75.0051 76.6687 75.0051V75.5051V76.0051C77.8976 76.0051 79.0288 75.8025 80.0555 75.3889L79.8687 74.9251ZM76.6687 73.6251V74.1251C77.5955 74.1251 78.4564 73.9609 79.2447 73.6252L79.0487 73.1651L78.8528 72.7051C78.2011 72.9827 77.4753 73.1251 76.6687 73.1251V73.6251ZM79.0487 73.1651L79.2487 73.6234C80.0384 73.2788 80.7261 72.8094 81.3066 72.2143L80.9487 71.8651L80.5908 71.516C80.1047 72.0142 79.5258 72.4114 78.8488 72.7069L79.0487 73.1651ZM80.9487 71.8651L81.3108 72.21C81.892 71.5997 82.334 70.8883 82.6369 70.0807L82.1687 69.9051L81.7006 69.7296C81.4434 70.4153 81.0721 71.0105 80.5867 71.5203L80.9487 71.8651ZM82.1687 69.9051L82.6341 70.088C82.9521 69.2785 83.1087 68.4093 83.1087 67.4851H82.6087H82.1087C82.1087 68.2943 81.972 69.0384 81.7033 69.7223L82.1687 69.9051ZM82.6087 67.4851H83.1087C83.1087 66.5609 82.9521 65.6917 82.6341 64.8823L82.1687 65.0651L81.7034 65.248C81.972 65.9319 82.1087 66.676 82.1087 67.4851H82.6087ZM82.1687 65.0651L82.6369 64.8896C82.3337 64.0809 81.8905 63.3744 81.3066 62.776L80.9487 63.1251L80.5908 63.4743C81.0736 63.9692 81.4437 64.556 81.7005 65.2407L82.1687 65.0651ZM80.9487 63.1251L81.3108 62.7803C80.7284 62.1688 80.037 61.6964 79.2416 61.3638L79.0487 61.8251L78.8558 62.2864C79.5271 62.5671 80.1024 62.9615 80.5866 63.47L80.9487 63.1251ZM79.0487 61.8251L79.2447 61.3651C78.4564 61.0294 77.5955 60.8651 76.6687 60.8651V61.3651V61.8651C77.4753 61.8651 78.2011 62.0076 78.8528 62.2851L79.0487 61.8251ZM76.6687 61.3651V60.8651C75.7419 60.8651 74.8756 61.0294 74.0758 61.3638L74.2687 61.8251L74.4616 62.2864C75.1285 62.0075 75.8623 61.8651 76.6687 61.8651V61.3651ZM74.2687 61.8251L74.0728 61.3651C73.2909 61.6981 72.6075 62.1704 72.0267 62.7803L72.3887 63.1251L72.7508 63.47C73.2366 62.9599 73.8065 62.5655 74.4647 62.2851L74.2687 61.8251ZM72.3887 63.1251L72.0267 62.7803C71.4594 63.3766 71.0188 64.0794 70.7034 64.8823L71.1687 65.0651L71.6341 65.248C71.9053 64.5575 72.278 63.9669 72.7508 63.47L72.3887 63.1251ZM71.1687 65.0651L70.7034 64.8823C70.3854 65.6917 70.2287 66.5609 70.2287 67.4851H70.7287H71.2287C71.2287 66.676 71.3654 65.9319 71.6341 65.248L71.1687 65.0651ZM70.7287 67.4851H70.2287C70.2287 68.4093 70.3854 69.2785 70.7034 70.088L71.1687 69.9051L71.6341 69.7223C71.3654 69.0384 71.2287 68.2943 71.2287 67.4851H70.7287ZM71.1687 69.9051L70.7034 70.088C71.0184 70.8899 71.4576 71.5974 72.0222 72.2055L72.3887 71.8651L72.7551 71.5249C72.2798 71.013 71.9057 70.4137 71.6341 69.7223L71.1687 69.9051ZM72.3887 71.8651L72.0308 72.2143C72.6099 72.8078 73.2895 73.2772 74.0656 73.6221L74.2687 73.1651L74.4718 72.7082C73.8079 72.4132 73.2342 72.0158 72.7466 71.516L72.3887 71.8651ZM74.2687 73.1651L74.0758 73.6264C74.8756 73.9609 75.7419 74.1251 76.6687 74.1251V73.6251V73.1251C75.8623 73.1251 75.1285 72.9827 74.4616 72.7038L74.2687 73.1651Z" fill="#2C88B5"/>
<path d="M50.645 75.3051C50.3516 75.3051 50.105 75.2051 49.905 75.0051C49.705 74.8051 49.605 74.5585 49.605 74.2651V60.7251C49.605 60.4185 49.705 60.1718 49.905 59.9851C50.105 59.7851 50.3516 59.6851 50.645 59.6851C50.9516 59.6851 51.1983 59.7851 51.385 59.9851C51.585 60.1718 51.685 60.4185 51.685 60.7251V74.2651C51.685 74.5585 51.585 74.8051 51.385 75.0051C51.1983 75.2051 50.9516 75.3051 50.645 75.3051ZM60.6392 75.5051C59.7859 75.5051 58.9725 75.3718 58.1992 75.1051C57.4259 74.8385 56.7525 74.4651 56.1792 73.9851C55.6059 73.5051 55.1859 72.9518 54.9192 72.3251C54.7859 72.0451 54.7859 71.7851 54.9192 71.5451C55.0659 71.3051 55.3059 71.1518 55.6392 71.0851C55.8792 71.0318 56.1125 71.0718 56.3392 71.2051C56.5792 71.3251 56.7592 71.5118 56.8792 71.7651C57.0392 72.0985 57.2992 72.4051 57.6592 72.6851C58.0325 72.9651 58.4792 73.1918 58.9992 73.3651C59.5192 73.5385 60.0659 73.6251 60.6392 73.6251C61.2792 73.6251 61.8659 73.5251 62.3992 73.3251C62.9459 73.1251 63.3859 72.8385 63.7192 72.4651C64.0525 72.0785 64.2192 71.6051 64.2192 71.0451C64.2192 70.3385 63.9392 69.7051 63.3792 69.1451C62.8325 68.5851 61.9259 68.2385 60.6592 68.1051C59.0059 67.9451 57.7059 67.4585 56.7592 66.6451C55.8125 65.8318 55.3392 64.8251 55.3392 63.6251C55.3392 62.7451 55.5859 61.9985 56.0792 61.3851C56.5725 60.7718 57.2392 60.3051 58.0792 59.9851C58.9325 59.6651 59.8792 59.5051 60.9192 59.5051C61.7325 59.5051 62.4392 59.6185 63.0392 59.8451C63.6525 60.0718 64.1859 60.3851 64.6392 60.7851C65.0925 61.1851 65.4859 61.6585 65.8192 62.2051C66.0059 62.4985 66.0792 62.7785 66.0392 63.0451C66.0125 63.2985 65.8859 63.4985 65.6592 63.6451C65.4059 63.8051 65.1325 63.8385 64.8392 63.7451C64.5459 63.6518 64.3259 63.4785 64.1792 63.2251C63.9659 62.8385 63.7059 62.5118 63.3992 62.2451C63.0925 61.9785 62.7325 61.7718 62.3192 61.6251C61.9059 61.4651 61.4192 61.3851 60.8592 61.3851C59.8725 61.3718 59.0459 61.5585 58.3792 61.9451C57.7125 62.3185 57.3792 62.8985 57.3792 63.6851C57.3792 64.0851 57.4792 64.4718 57.6792 64.8451C57.8925 65.2051 58.2725 65.5185 58.8192 65.7851C59.3792 66.0518 60.1792 66.2385 61.2192 66.3451C62.8059 66.5051 64.0392 66.9918 64.9192 67.8051C65.8125 68.6051 66.2592 69.6651 66.2592 70.9851C66.2592 71.7451 66.0992 72.4051 65.7792 72.9651C65.4725 73.5251 65.0525 73.9985 64.5192 74.3851C63.9992 74.7585 63.3992 75.0385 62.7192 75.2251C62.0525 75.4118 61.3592 75.5051 60.6392 75.5051ZM76.6687 75.5051C75.4954 75.5051 74.4221 75.3118 73.4487 74.9251C72.4754 74.5251 71.6354 73.9718 70.9287 73.2651C70.2354 72.5451 69.6954 71.6985 69.3087 70.7251C68.9221 69.7385 68.7287 68.6585 68.7287 67.4851C68.7287 66.3118 68.9221 65.2385 69.3087 64.2651C69.6954 63.2918 70.2354 62.4518 70.9287 61.7451C71.6354 61.0251 72.4754 60.4718 73.4487 60.0851C74.4221 59.6851 75.4954 59.4851 76.6687 59.4851C77.8421 59.4851 78.9087 59.6851 79.8687 60.0851C80.8421 60.4718 81.6821 61.0251 82.3887 61.7451C83.0954 62.4518 83.6421 63.2918 84.0287 64.2651C84.4154 65.2385 84.6087 66.3118 84.6087 67.4851C84.6087 68.6585 84.4154 69.7385 84.0287 70.7251C83.6421 71.6985 83.0954 72.5451 82.3887 73.2651C81.6821 73.9718 80.8421 74.5251 79.8687 74.9251C78.9087 75.3118 77.8421 75.5051 76.6687 75.5051ZM76.6687 73.6251C77.5354 73.6251 78.3287 73.4718 79.0487 73.1651C79.7821 72.8451 80.4154 72.4118 80.9487 71.8651C81.4821 71.3051 81.8887 70.6518 82.1687 69.9051C82.4621 69.1585 82.6087 68.3518 82.6087 67.4851C82.6087 66.6185 82.4621 65.8118 82.1687 65.0651C81.8887 64.3185 81.4821 63.6718 80.9487 63.1251C80.4154 62.5651 79.7821 62.1318 79.0487 61.8251C78.3287 61.5185 77.5354 61.3651 76.6687 61.3651C75.8021 61.3651 75.0021 61.5185 74.2687 61.8251C73.5487 62.1318 72.9221 62.5651 72.3887 63.1251C71.8687 63.6718 71.4621 64.3185 71.1687 65.0651C70.8754 65.8118 70.7287 66.6185 70.7287 67.4851C70.7287 68.3518 70.8754 69.1585 71.1687 69.9051C71.4621 70.6518 71.8687 71.3051 72.3887 71.8651C72.9221 72.4118 73.5487 72.8451 74.2687 73.1651C75.0021 73.4718 75.8021 73.6251 76.6687 73.6251Z" fill="#2C88B5"/>
</svg>
