<svg width="10" height="11" viewBox="0 0 10 11" fill="none" xmlns="http://www.w3.org/2000/svg">
<mask id="path-1-outside-1_3114_1877" maskUnits="userSpaceOnUse" x="-0.0703125" y="-0.578125" width="10" height="11" fill="black">
<rect fill="white" x="-0.0703125" y="-0.578125" width="10" height="11"/>
<path d="M8.79688 4.63281V5.51562H1V4.63281H8.79688ZM5.33594 1V9.28125H4.39844V1H5.33594Z"/>
</mask>
<path d="M8.79688 4.63281V5.51562H1V4.63281H8.79688ZM5.33594 1V9.28125H4.39844V1H5.33594Z" fill="#451717"/>
<path d="M8.79688 4.63281H9.79688V3.63281H8.79688V4.63281ZM8.79688 5.51562V6.51562H9.79688V5.51562H8.79688ZM1 5.51562H0V6.51562H1V5.51562ZM1 4.63281V3.63281H0V4.63281H1ZM5.33594 1H6.33594V0H5.33594V1ZM5.33594 9.28125V10.2812H6.33594V9.28125H5.33594ZM4.39844 9.28125H3.39844V10.2812H4.39844V9.28125ZM4.39844 1V0H3.39844V1H4.39844ZM8.79688 4.63281H7.79688V5.51562H8.79688H9.79688V4.63281H8.79688ZM8.79688 5.51562V4.51562H1V5.51562V6.51562H8.79688V5.51562ZM1 5.51562H2V4.63281H1H0V5.51562H1ZM1 4.63281V5.63281H8.79688V4.63281V3.63281H1V4.63281ZM5.33594 1H4.33594V9.28125H5.33594H6.33594V1H5.33594ZM5.33594 9.28125V8.28125H4.39844V9.28125V10.2812H5.33594V9.28125ZM4.39844 9.28125H5.39844V1H4.39844H3.39844V9.28125H4.39844ZM4.39844 1V2H5.33594V1V0H4.39844V1Z" fill="#F8B0B8" mask="url(#path-1-outside-1_3114_1877)"/>
</svg>
