<svg width="85" height="85" viewBox="0 0 85 85" fill="none" xmlns="http://www.w3.org/2000/svg">
<path d="M18.58 11.6065C17.93 11.9532 17.28 12.6899 17.1067 13.2532C16.89 14.1632 16.5433 14.2932 14.3333 14.4665C12.2967 14.5965 11.6033 14.8565 10.91 15.7232C10.0433 16.7199 10.0433 17.2832 10 41.1599C10 60.2699 10.13 65.5999 10.5633 65.7299C10.9967 65.9032 12.86 66.2065 14.42 66.3365C14.5933 66.3799 14.7667 67.2899 14.8533 68.4599L14.9833 70.4965L30.3667 70.7132C45.2733 70.9299 45.7933 70.9732 47.57 71.8832C48.5667 72.4465 50.8633 73.1832 52.64 73.5732C55.6733 74.2665 56.1067 74.2665 59.5733 73.5299C61.61 73.0965 63.3 72.5765 63.3 72.4032C63.3 72.2299 63.9067 71.9699 64.6 71.7965C65.3367 71.6232 65.9 71.3199 65.9 71.1032C65.9 70.8865 66.1167 70.7132 66.3767 70.7132C67.2433 70.7132 71.8367 65.6865 72.7467 63.6932C74.0467 60.9199 75 57.1932 75 54.8532C75 51.9499 73.31 46.4465 71.75 44.3665C70.06 42.0699 65.9867 38.4299 64.6433 37.9965C63.7333 37.7365 63.7333 37.5199 63.7333 27.6832C63.7333 22.1365 63.6033 17.2399 63.4733 16.7199C63.1267 15.4199 61.09 14.3799 58.8367 14.3799C57.1467 14.3799 56.8433 14.2499 56.7133 13.4265C56.6267 12.9065 55.9333 12.0832 55.1533 11.6499C53.8967 10.9132 53.55 10.8699 52.64 11.3899C52.0333 11.6932 51.21 12.5165 50.82 13.1665C50.2133 14.2499 49.8667 14.3799 47.8733 14.3799C45.8367 14.3799 45.62 14.2932 45.36 13.2965C45.23 12.7332 44.4933 11.9099 43.8 11.5632C42.63 10.9565 42.37 10.9565 41.2 11.5632C40.5067 11.9099 39.77 12.7332 39.64 13.2965C39.38 14.2932 39.1633 14.3799 37.1267 14.3799C35.1767 14.3799 34.83 14.2499 34.2233 13.1665C33.8767 12.5165 33.0533 11.7365 32.4033 11.3899C31.4067 10.8699 31.1467 10.9132 29.8467 11.6499C29.0233 12.1265 28.3733 12.9065 28.2867 13.4265C28.1567 14.3365 27.94 14.4232 25.6867 14.2932C23.5633 14.1632 23.2167 14.0332 23.0867 13.2532C22.9567 12.4732 21.0067 10.8699 20.0967 10.9132C19.9233 10.9565 19.23 11.2165 18.58 11.6065ZM21.2667 15.7232C21.2667 17.7165 21.18 17.8465 20.1833 17.8465C19.1867 17.8465 19.1 17.7165 19.1 15.7232C19.1 14.3799 19.3167 13.5132 19.6633 13.3832C20.8333 12.9932 21.2667 13.6432 21.2667 15.7232ZM32.3167 14.5532C32.75 16.8065 32.4467 17.6299 31.2333 17.6299C30.28 17.6299 30.15 17.4132 30.02 15.9832C29.76 13.1232 31.84 11.8665 32.3167 14.5532ZM43.1067 13.3399C43.6267 13.5132 43.8 14.2065 43.8 15.7232C43.8 17.8032 43.7567 17.8465 42.5 17.8465C41.2433 17.8465 41.2 17.8032 41.2 15.7232C41.2 14.4232 41.4167 13.5132 41.7633 13.3832C42.0233 13.2532 42.3267 13.1232 42.37 13.1232C42.4133 13.0799 42.7167 13.2099 43.1067 13.3399ZM54.59 13.6865C54.8933 14.0332 55.0667 15.0732 54.98 15.9832C54.85 17.4132 54.72 17.6299 53.7667 17.6299C52.9 17.6299 52.64 17.3699 52.5533 16.3732C52.25 13.6865 53.3767 12.2132 54.59 13.6865ZM16.9333 18.2799L17.15 19.7965L20.0533 19.9265L23 20.0565L23.26 18.2799L23.5633 16.5465H25.86H28.1567L28.2867 18.1499C28.4167 19.7965 28.4167 19.7965 30.54 19.9265C34.0067 20.1432 34.7 19.8399 34.7 18.0199V16.5032L36.9967 16.6332C39.2067 16.7632 39.25 16.8065 39.4667 18.2799L39.6833 19.7965H42.5H45.3167L45.5333 18.2799C45.75 16.8065 45.7933 16.7632 48.0467 16.6332L50.3 16.5032V18.0199C50.3 19.8399 50.9933 20.1432 54.46 19.9265C56.54 19.7965 56.5833 19.7532 56.8 18.2799C56.9733 16.9799 57.19 16.7632 58.2733 16.6332C58.9233 16.5465 59.9633 16.5899 60.5267 16.7199C61.5233 16.9799 61.5667 17.1965 61.5667 20.2299V23.4799H36.8667H12.1667V20.3165C12.1667 18.5399 12.2967 16.9799 12.47 16.8065C12.6433 16.6332 13.6833 16.5465 14.7667 16.6332C16.63 16.7632 16.7167 16.8065 16.9333 18.2799ZM61.48 30.9332C61.61 37.1732 61.74 36.9565 58.0133 36.0899C55.7167 35.5699 50.1267 36.5665 47.2667 38.0399C44.7967 39.3399 39.9 43.8899 39.9 44.8865C39.9 45.1899 39.5967 45.7099 39.25 46.0132C38.9033 46.3165 38.6 46.8799 38.6 47.2699C38.6 47.6599 38.2967 48.5265 37.95 49.2199C37.0833 50.8665 37.04 58.7965 37.9067 60.5732C38.2533 61.2665 38.6 62.3065 38.6867 62.9132L38.8167 63.9965H25.6H12.3833L12.2533 45.5799C12.21 35.4399 12.2533 26.7299 12.3833 26.1665L12.6 25.2132L36.9967 25.2999L61.35 25.4299L61.48 30.9332ZM62.91 39.5132C67.0267 41.5499 69.2367 43.7599 71.1867 47.7465C72.4433 50.3032 72.5733 50.9099 72.5733 54.8965C72.6167 58.9265 72.4867 59.4465 71.23 62.0465C69.7567 64.9932 67.2867 68.1132 66.42 68.1132C66.1167 68.1132 65.9 68.2865 65.9 68.5032C65.9 68.6765 64.6 69.4999 62.9967 70.3232C60.3533 71.5799 59.66 71.7532 56.3667 71.7532C52.77 71.7965 47.7 70.6265 47.7 69.7599C47.7 69.5865 47.44 69.4132 47.18 69.4132C46.4867 69.4132 43.4533 66.5532 42.2833 64.8199C38.5567 59.4032 38.0367 53.5532 40.68 47.7465C43.0633 42.6332 47.6567 39.1232 53.3333 38.0832C55.8033 37.6065 60.4833 38.2999 62.91 39.5132ZM41.3733 67.0299C41.7633 67.5065 42.0667 68.0265 42.0667 68.2432C42.0667 68.4165 36.3467 68.5032 29.4133 68.4599C17.41 68.3299 16.7167 68.2865 16.5867 67.5065C16.5 67.0732 16.6733 66.5532 16.9333 66.3799C17.2367 66.1632 22.74 66.0765 29.11 66.1199C40.2033 66.1632 40.7667 66.2065 41.3733 67.0299Z" fill="#CB9975"/>
<path d="M18.6667 30.2833C17.7133 30.6733 16.5433 32.2767 16.5 33.1433C16.5 34.66 17.93 36.48 19.36 36.74C21.9167 37.2167 23.7367 35.3967 23.26 32.7533C22.8267 30.5867 20.79 29.46 18.6667 30.2833ZM20.5733 32.4067C21.4833 32.7533 21.4833 34.14 20.5733 34.4867C19.6633 34.8333 19.1 34.4433 19.1 33.49C19.1 32.2767 19.49 32.0167 20.5733 32.4067Z" fill="#CB9975"/>
<path d="M29.2835 31.1498C28.6769 31.7998 28.2002 32.8398 28.2002 33.4464C28.2002 34.7464 30.0635 36.9131 31.2335 36.9131C32.3169 36.9131 33.8335 34.9198 33.8335 33.4464C33.8335 31.9731 32.3169 29.9798 31.2335 29.9798C30.7569 29.9798 29.8902 30.4998 29.2835 31.1498ZM32.0135 33.1864C32.2302 34.2264 31.5802 34.8331 30.6702 34.4864C29.8035 34.1831 29.7169 33.4031 30.4535 32.6664C31.1469 31.9731 31.8402 32.2331 32.0135 33.1864Z" fill="#CB9975"/>
<path d="M40.3768 31.1064C39.8568 31.7564 39.4668 32.7964 39.4668 33.4464C39.4668 35.1798 40.9835 36.9131 42.5001 36.9131C44.0168 36.9131 45.5335 35.1798 45.5335 33.4464C45.5335 31.7131 44.0168 29.9798 42.5001 29.9798C41.6768 29.9798 40.9401 30.3698 40.3768 31.1064ZM43.1068 32.4064C43.4968 32.5364 43.8001 33.0131 43.8001 33.4464C43.8001 34.3131 42.8035 34.8331 41.8501 34.4864C41.0701 34.1831 40.9835 32.7531 41.7635 32.4498C42.0235 32.3198 42.3268 32.1898 42.3701 32.1898C42.4135 32.1464 42.7168 32.2764 43.1068 32.4064Z" fill="#CB9975"/>
<path d="M18.6667 39.3829C17.67 39.8163 16.5433 41.3763 16.5 42.4163C16.5 43.0229 17.0633 43.8029 18.0167 44.5396C19.7067 45.7963 21.0933 45.7529 22.5667 44.2796C24.9067 41.9396 21.8733 38.1263 18.6667 39.3829ZM20.8333 41.4629C21.5267 42.3296 21.05 43.4129 19.9667 43.4129C19.36 43.4129 19.1 43.1096 19.1 42.4163C19.1 40.7696 19.88 40.3363 20.8333 41.4629Z" fill="#CB9975"/>
<path d="M29.11 40.2063C27.8533 41.8096 27.9833 43.023 29.5 44.4963C30.7133 45.623 30.8867 45.6663 31.9267 45.1463C33.4433 44.323 33.9633 43.153 33.6167 41.4196C33.1833 38.9496 30.6267 38.2563 29.11 40.2063ZM32.1 42.113C32.1 43.1096 31.5367 43.4996 30.6267 43.153C29.8033 42.8496 29.7167 42.0696 30.41 41.3763C31.1033 40.683 32.1 41.1596 32.1 42.113Z" fill="#CB9975"/>
<path d="M18.6667 48.483C17.67 48.9164 16.5433 50.4764 16.5 51.5164C16.5 52.123 17.0633 52.903 18.0167 53.6397C19.7067 54.8964 21.0933 54.853 22.5667 53.3797C24.9067 51.0397 21.8733 47.2264 18.6667 48.483ZM20.8333 50.563C21.5267 51.4297 21.05 52.513 19.9667 52.513C19.36 52.513 19.1 52.2097 19.1 51.5164C19.1 49.8697 19.88 49.4364 20.8333 50.563Z" fill="#CB9975"/>
<path d="M29.1533 49.1764C27.8533 50.5631 27.94 52.1231 29.4133 53.5097C30.93 54.9831 31.4933 54.9831 32.8367 53.5097C33.7033 52.5997 33.8767 52.0797 33.66 50.8231C33.2267 48.1797 30.8867 47.3131 29.1533 49.1764ZM32.1 51.2131C32.1 52.2097 31.5367 52.5997 30.6267 52.2531C29.8033 51.9497 29.7167 51.1697 30.41 50.4764C31.1033 49.7831 32.1 50.2597 32.1 51.2131Z" fill="#CB9975"/>
<path d="M52.5102 40.6832C50.7769 41.0298 46.7902 43.4132 45.3602 44.8865C43.0635 47.2698 41.2002 51.6898 41.2002 54.5932C41.2002 56.7598 42.4135 61.0932 43.2369 61.9598C43.5402 62.2632 43.8002 62.7398 43.8002 62.9565C43.8002 63.8232 47.3102 66.7698 49.7369 67.9398C51.9902 69.0665 52.6835 69.1965 56.2802 69.1532C58.5335 69.1532 60.4835 68.9365 60.6135 68.6765C60.7869 68.4598 61.4369 68.1132 62.1302 67.9398C62.7802 67.8098 63.3002 67.4632 63.3002 67.2465C63.3002 66.9865 63.5602 66.8132 63.9069 66.8132C64.8169 66.8132 67.7635 63.3898 68.9335 60.9632C70.4502 57.9298 70.4935 51.9932 69.0202 48.9165C67.9369 46.6198 64.8169 42.9798 63.9502 42.9798C63.6035 42.9798 63.3002 42.8498 63.2135 42.6332C63.1702 42.4598 62.3902 41.9832 61.5669 41.5065C60.0502 40.7265 54.6769 40.2065 52.5102 40.6832ZM54.9802 44.1932C55.0669 45.2332 55.3269 45.5798 55.9769 45.5798C56.6269 45.5798 56.8002 45.2765 56.8002 44.0198V42.4598L58.4469 42.7632C61.5235 43.3265 63.2569 44.4965 66.2469 48.0498C67.2869 49.2632 68.6735 53.5965 68.3269 54.4632C68.1969 54.8532 67.5469 55.1132 66.8102 55.1132C66.1169 55.1132 65.3802 55.3298 65.2502 55.5465C64.8169 56.2398 65.9002 57.2798 67.0269 57.2798C68.0669 57.2798 68.4569 58.2765 67.6335 58.7965C67.4169 58.9265 67.2002 59.3598 67.2002 59.7498C67.2002 60.4432 64.9469 63.5198 63.5169 64.7332C62.3035 65.7732 60.3102 66.6832 58.4469 66.9865L56.8002 67.2898V65.7298C56.8002 64.5165 56.6269 64.2132 55.9335 64.2132C55.2835 64.2132 55.0669 64.5165 55.0669 65.4698C55.0669 66.2065 54.8935 66.8998 54.6335 67.0298C53.4635 67.7665 46.4002 64.3432 46.4002 63.0432C46.4002 62.7398 46.2269 62.4798 46.0535 62.4798C45.5769 62.4798 43.8002 58.9265 43.8002 58.0165C43.8002 57.5832 44.2335 57.2798 45.0135 57.1932C45.8369 57.1065 46.2269 56.8032 46.3135 56.1098C46.4435 55.3298 46.2269 55.1565 45.0135 55.0265C43.5835 54.8965 43.5835 54.8532 43.7135 52.9465C43.8869 50.9965 45.3602 47.3132 46.0535 47.3132C46.2269 47.3132 46.4002 47.0532 46.4002 46.7498C46.4002 46.0565 50.1269 43.5865 52.0769 43.0665C54.2869 42.4165 54.8502 42.5898 54.9802 44.1932Z" fill="#CB9975"/>
<path d="M61.6973 50.0432C61.524 50.3466 60.3973 51.3866 59.184 52.2966C58.014 53.2499 56.9306 54.2032 56.8873 54.3766C56.6706 54.8099 55.5006 53.8566 55.5006 53.2066C55.5006 52.4266 53.984 51.6899 53.2906 52.1232C52.814 52.4266 52.7706 52.6432 53.204 53.2499C53.5073 53.6832 54.2006 54.7666 54.7206 55.6332C55.804 57.4099 56.1073 57.5832 57.0173 56.7166C57.7106 56.0666 61.394 52.9032 62.824 51.7766C63.5173 51.2132 63.7773 50.6499 63.604 50.2166C63.2573 49.3499 62.174 49.2632 61.6973 50.0432Z" fill="#CB9975"/>
</svg>
