<svg width="85" height="85" viewBox="0 0 85 85" fill="none" xmlns="http://www.w3.org/2000/svg">
<path d="M35.9564 12.252C30.3725 14.2788 23.2181 16.8123 17.6342 18.6702C16.4564 19.1206 14.2315 19.8525 12.7483 20.4155L10 21.3163V42.8228V64.273L12.9664 65.2864C14.5805 65.8494 16.9799 66.6939 18.2886 67.1443C19.5973 67.5947 21.3859 68.214 22.2148 68.4955C23.0436 68.777 25.1376 69.5088 26.7953 70.0718C28.4966 70.6911 31.1141 71.5919 32.6846 72.1549C34.255 72.6616 36.5235 73.4498 37.7013 73.8439C41.4094 75.1951 42.849 75.3077 45.3356 74.4632C50.3524 72.7742 58.2919 70.0718 60.5168 69.3399C61.7383 68.8896 63.8322 68.1577 65.0973 67.7073C66.3188 67.2569 69.0671 66.3561 71.2047 65.6242L75 64.3856V42.8228V21.2037L73.8222 20.8659C73.1242 20.697 71.3356 20.0777 69.7651 19.5147C65.5336 17.9946 62.4362 16.9249 54.2785 14.1662C50.2215 12.7587 45.8591 11.2386 44.6376 10.7882C43.4161 10.3378 42.3255 10 42.2383 10C42.151 10.0563 39.3154 11.0697 35.9564 12.252ZM44.8993 13.378C46.0772 13.7158 47.0805 14.2225 47.0805 14.504C47.0805 14.7855 46.9933 15.0107 46.8624 15.0107C46.6007 15.0107 28.2785 21.3726 25.0503 22.5548C23.8725 23.0052 22.2148 23.5119 21.4295 23.7371C19.9463 24.1312 15.6711 23.1178 15.6711 22.3859C15.6711 21.7667 19.9027 20.1903 39.4463 13.6032C42.2383 12.6461 42.2819 12.6461 44.8993 13.378ZM53.7987 16.4182C55.0201 16.8686 56.9396 17.5442 58.0738 17.9383C60.8658 18.8954 60.6913 19.008 51.6611 22.0481C50.4832 22.4422 47.2114 23.5682 44.4631 24.5816C32.4664 28.8041 32.7718 28.7478 30.2852 27.7344C29.0201 27.2277 27.7987 26.8336 27.5369 26.8336C27.2752 26.8336 26.5336 26.5521 25.8356 26.2143C24.7013 25.6513 24.6577 25.595 25.443 25.032C25.8792 24.6942 27.2752 24.1312 28.4966 23.7371C29.7181 23.343 32.9899 22.217 35.7383 21.26C38.4866 20.2466 41.7584 19.1206 42.9362 18.6702C45.1611 17.9383 51.094 15.7989 51.3993 15.63C51.4866 15.63 52.5772 15.9678 53.7987 16.4182ZM68.2383 21.5415L69.547 22.217L68.4564 22.8363C67.4966 23.343 64.7919 24.3001 54.9329 27.6781C53.6242 28.1285 50.3087 29.3108 47.604 30.2679C42.8926 31.9569 42.5872 31.9569 40.2315 31.225C38.8792 30.8309 37.7013 30.2116 37.6141 29.8738C37.5268 29.536 38.3121 29.0293 39.3154 28.6915C41.7584 27.9033 51.0503 24.6942 53.8423 23.7371C55.0638 23.2867 57.2013 22.5548 58.6409 22.0481C60.0805 21.5415 61.8691 20.9222 62.5671 20.697C64.0503 20.134 66.3188 20.4718 68.2383 21.5415ZM15.6711 25.0883C17.3289 25.7076 18.8993 26.3269 19.1611 26.5521C19.3792 26.721 19.5973 28.9167 19.5973 31.3939C19.5973 35.5038 19.6846 35.8416 20.4698 35.8416C20.9497 35.8416 21.6913 36.0668 22.1275 36.3483C22.5201 36.6298 24.5268 37.418 26.5772 38.0373C28.6275 38.7129 30.8087 39.5011 31.5067 39.7826L32.6846 40.233V36.1231C32.6846 33.8148 32.8591 31.8443 33.0336 31.6754C33.4698 31.3376 39.7517 33.3081 40.9732 34.1526C41.8456 34.7719 41.8456 35.2786 41.7584 53.4634L41.6275 72.1549L40.3188 72.0986C39.6208 72.0423 37.5705 71.4793 35.8691 70.8037L32.6846 69.5651V64.5545C32.6846 61.7395 32.5973 59.4875 32.4664 59.4875C32.3792 59.4875 30.0671 58.6993 27.3624 57.7422C24.6577 56.7851 21.7785 55.7717 21.0369 55.5465L19.5973 55.0961V59.8253C19.5973 65.3427 19.6409 65.2864 14.7987 63.5411L11.9631 62.4714L11.8322 43.2732C11.7886 30.3805 11.8758 24.0186 12.1812 24.0186C12.443 24.0186 14.0134 24.5253 15.6711 25.0883ZM73.1678 43.2732L73.0369 62.4714L68.4564 64.1041C59.7752 67.088 58.6409 67.4821 55.8054 68.4955C46.2081 71.986 44.4195 72.549 43.8087 72.2112C43.2416 71.9297 43.1544 69.5088 43.2416 53.1819L43.3725 34.4341L45.1175 33.6459C46.0772 33.2518 47.953 32.5199 49.2617 32.0695C50.5705 31.6191 52.7081 30.8872 53.9732 30.4368C58.3356 28.9167 60.8658 28.0722 66.0134 26.3269C68.849 25.3698 71.292 24.469 71.4228 24.3001C71.5537 24.1312 72.0336 24.0186 72.4698 24.0186C73.2114 24.0186 73.255 24.8631 73.1678 43.2732ZM26.1409 28.6915C30.9396 30.3242 30.9396 30.3805 30.9396 33.8711C30.9396 35.5601 30.8087 36.9676 30.6342 36.9676C30.4161 36.9676 28.3221 36.2357 25.9228 35.3349L21.5604 33.7585L21.4295 30.4931L21.2987 27.284L22.5201 27.5655C23.1745 27.7344 24.8322 28.2411 26.1409 28.6915ZM24.396 59.206C25.7047 59.6001 27.6678 60.332 28.7584 60.7824L30.7215 61.5706L30.8524 65.399C30.9832 68.777 30.896 69.1711 30.2416 68.8333C29.849 68.6644 28.6275 68.214 27.4933 67.8762C26.4027 67.5384 24.5705 66.8628 23.4362 66.4124L21.3423 65.5679V61.9647C21.3423 59.9942 21.4732 58.3615 21.6913 58.3615C21.8658 58.4178 23.0872 58.7556 24.396 59.206Z" fill="#CB9975"/>
<path d="M69.3291 59.4878C69.3291 60.2197 69.6345 60.6138 70.2016 60.6138C70.7687 60.6138 71.0741 60.2197 71.0741 59.4878C71.0741 58.7559 70.7687 58.3618 70.2016 58.3618C69.6345 58.3618 69.3291 58.7559 69.3291 59.4878Z" fill="#CB9975"/>
<path d="M64.9668 61.1767C64.9668 61.9086 65.2722 62.3027 65.8393 62.3027C66.4064 62.3027 66.7118 61.9086 66.7118 61.1767C66.7118 60.4448 66.4064 60.0507 65.8393 60.0507C65.2722 60.0507 64.9668 60.4448 64.9668 61.1767Z" fill="#CB9975"/>
<path d="M61.04 61.7397C61.04 62.4716 61.3454 62.8657 61.9125 62.8657C62.4796 62.8657 62.785 62.4716 62.785 61.7397C62.785 61.0078 62.4796 60.6137 61.9125 60.6137C61.3454 60.6137 61.04 61.0078 61.04 61.7397Z" fill="#CB9975"/>
</svg>
