<svg width="85" height="85" viewBox="0 0 85 85" fill="none" xmlns="http://www.w3.org/2000/svg">
<path d="M11.95 10.52C10 11.6467 10.0433 11.2567 10 35.0033V57.6233L11.1267 58.49C12.1667 59.3133 12.86 59.4 17.6267 59.4H23V66.2467C23 72.53 23.0867 73.18 23.8667 74.0467L24.7767 75H49H73.2233L74.1333 74.0467C75 73.1367 75 72.66 75 50.2567V27.3767L73.8733 26.51C72.8333 25.6867 72.14 25.6 67.3733 25.6H62V18.9267V12.2533L60.6567 11.1267L59.3133 10H36.0867C19.4033 10.0433 12.5567 10.1733 11.95 10.52ZM60.18 34.44C60.2233 50.3433 60.1367 56.67 59.79 57.06C59.0967 57.8833 13.0767 57.97 12.2533 57.1467C11.5167 56.41 11.5167 13.4233 12.2533 12.6867C12.6433 12.2967 18.4067 12.1667 36.4333 12.2533L60.05 12.3833L60.18 34.44ZM73.18 32.9233L73.31 37.8633L69.7133 41.2867C67.72 43.1933 65.2067 45.62 64.08 46.7467L62 48.74V38.2533V27.7233L67.5467 27.8533L73.05 27.9833L73.18 32.9233ZM73.2667 49.3467V57.45L65.38 65.3367L57.45 73.2667H49.3467C44.4933 73.2667 41.2 73.0933 41.2 72.8767C41.2 72.6167 44.1467 69.4967 47.7433 65.9433L54.2867 59.4H57.1467C59.4867 59.4 60.18 59.2267 61.0033 58.4467C61.87 57.6233 62 57.1033 62 54.2867V51.08L67.2867 45.9667C70.19 43.15 72.7467 40.94 72.92 41.0267C73.0933 41.1567 73.2667 44.8833 73.2667 49.3467ZM51.1667 59.7033C51.1667 59.8767 48.1767 62.9967 44.58 66.6367L37.95 73.2667H31.6233C26.2067 73.2667 25.21 73.18 24.9933 72.5733C24.6467 71.6633 24.6467 60.05 25.0367 59.7033C25.4267 59.27 51.1667 59.3133 51.1667 59.7033ZM73.2667 66.29C73.2667 69.3667 73.1367 72.1833 73.0067 72.5733C72.79 73.18 71.7933 73.2667 66.7233 73.2667C63.2133 73.2667 60.7 73.0933 60.7 72.8333C60.7 72.3133 72.3567 60.7 72.8767 60.7C73.0933 60.7 73.2667 63.2133 73.2667 66.29Z" fill="#CB9975"/>
<path d="M15.6767 14.5064C15.3301 14.8964 15.2001 16.9764 15.2867 20.8764L15.4167 26.6831H21.7001H27.9834L28.1134 20.8764C28.2001 16.9764 28.0701 14.8964 27.7234 14.5064C26.9867 13.6398 16.4134 13.6398 15.6767 14.5064ZM26.3801 20.4864L26.2501 24.9498H21.7001H17.1501L17.0201 20.4864L16.8901 16.0664H21.7001H26.5101L26.3801 20.4864Z" fill="#CB9975"/>
<path d="M19.6636 18.4933C17.4536 20.7033 19.4036 24.6466 22.4802 24.1266C24.0402 23.9099 25.5569 22.3933 25.6002 21.1366C25.6002 19.9233 24.2569 17.8866 23.2602 17.6266C21.5702 17.1933 20.7902 17.3666 19.6636 18.4933ZM23.3469 19.9666C24.3436 21.6133 22.2636 23.3899 20.9202 22.0466C20.2702 21.3966 20.2702 20.2699 20.9202 19.6199C21.7002 18.8399 22.7402 18.9699 23.3469 19.9666Z" fill="#CB9975"/>
<path d="M29.9765 14.5064C29.6299 14.8964 29.4999 16.9764 29.5865 20.8764L29.7165 26.6831H35.9999H42.2832L42.4132 20.8764C42.4999 16.9764 42.3699 14.8964 42.0232 14.5064C41.2865 13.6398 30.7132 13.6398 29.9765 14.5064ZM40.6799 20.4864L40.5499 24.9498H35.9999H31.4499L31.3199 20.4864L31.1899 16.0664H35.9999H40.8099L40.6799 20.4864Z" fill="#CB9975"/>
<path d="M33.8768 18.4931C33.3568 19.1431 32.9668 20.1831 32.9668 20.8331C32.9668 22.5665 34.4835 24.2998 36.0001 24.2998C37.5168 24.2998 39.0335 22.5665 39.0335 20.8331C39.0335 19.0998 37.5168 17.3665 36.0001 17.3665C35.1768 17.3665 34.4401 17.7565 33.8768 18.4931ZM37.0835 20.8331C37.0835 22.1765 36.9535 22.3498 36.0001 22.3498C35.1768 22.3498 34.8735 22.0898 34.7868 21.3531C34.5701 19.7931 35.0035 19.0131 36.0868 19.1865C36.9101 19.2731 37.0835 19.5765 37.0835 20.8331Z" fill="#CB9975"/>
<path d="M44.2764 14.5064C43.9297 14.8964 43.7997 16.9764 43.8864 20.8764L44.0164 26.6831H50.2997H56.583L56.713 20.8764C56.7997 16.9764 56.6697 14.8964 56.323 14.5064C55.5864 13.6398 45.013 13.6398 44.2764 14.5064ZM54.9797 20.4864L54.8497 24.9498H50.2997H45.7497L45.6197 20.4864L45.4897 16.0664H50.2997H55.1097L54.9797 20.4864Z" fill="#CB9975"/>
<path d="M48.5667 17.6697C47.5267 18.1031 46.4434 19.7064 46.4434 20.8331C46.4434 22.3931 47.83 23.8664 49.6067 24.1697C50.82 24.3431 51.2967 24.2131 52.25 23.2164C53.2467 22.2631 53.3767 21.8297 53.16 20.4864C52.77 18.0164 50.7767 16.8031 48.5667 17.6697ZM51.34 20.0531C51.9467 21.0064 51.2534 22.3064 50.04 22.4797C48.8267 22.6531 47.96 21.0931 48.6534 19.9664C49.3034 18.9264 50.6467 18.9697 51.34 20.0531Z" fill="#CB9975"/>
<path d="M15.6767 28.8067C15.3301 29.1967 15.2001 31.2767 15.2867 35.1767L15.4167 40.9834H21.7001H27.9834L28.1134 35.1767C28.2001 31.2767 28.0701 29.1967 27.7234 28.8067C26.9867 27.9401 16.4134 27.9401 15.6767 28.8067ZM26.3801 34.7867L26.2501 39.2501H21.7001H17.1501L17.0201 34.7867L16.8901 30.3667H21.7001H26.5101L26.3801 34.7867Z" fill="#CB9975"/>
<path d="M19.7505 32.7498C17.4105 35.0465 19.2738 38.9465 22.3938 38.4698C23.9971 38.2098 25.5571 36.7365 25.6005 35.4365C25.6005 34.2231 24.2571 32.1865 23.2605 31.9265C21.6138 31.4931 20.7905 31.6665 19.7505 32.7498ZM23.3471 34.2665C24.3438 35.9131 22.2638 37.6898 20.9205 36.3465C20.2705 35.6965 20.2705 34.5698 20.9205 33.9198C21.7005 33.1398 22.7405 33.2698 23.3471 34.2665Z" fill="#CB9975"/>
<path d="M29.9765 28.8067C29.6299 29.1967 29.4999 31.2767 29.5865 35.1767L29.7165 40.9834H35.9999H42.2832L42.4132 35.1767C42.4999 31.2767 42.3699 29.1967 42.0232 28.8067C41.2865 27.9401 30.7132 27.9401 29.9765 28.8067ZM40.6799 34.7867L40.5499 39.2501H35.9999H31.4499L31.3199 34.7867L31.1899 30.3667H35.9999H40.8099L40.6799 34.7867Z" fill="#CB9975"/>
<path d="M33.8768 32.7934C33.3568 33.4434 32.9668 34.4834 32.9668 35.1334C32.9668 36.8668 34.4835 38.6001 36.0001 38.6001C37.5168 38.6001 39.0335 36.8668 39.0335 35.1334C39.0335 33.4001 37.5168 31.6668 36.0001 31.6668C35.1768 31.6668 34.4401 32.0568 33.8768 32.7934ZM37.0835 35.1334C37.0835 36.4768 36.9535 36.6501 36.0001 36.6501C35.1768 36.6501 34.8735 36.3901 34.7868 35.6534C34.5701 34.0934 35.0035 33.3134 36.0868 33.4868C36.9101 33.5734 37.0835 33.8768 37.0835 35.1334Z" fill="#CB9975"/>
<path d="M44.2764 28.8067C43.9297 29.1967 43.7997 31.2767 43.8864 35.1767L44.0164 40.9834H50.2997H56.583L56.713 35.1767C56.7997 31.2767 56.6697 29.1967 56.323 28.8067C55.5864 27.9401 45.013 27.9401 44.2764 28.8067ZM54.9797 34.7867L54.8497 39.2501H50.2997H45.7497L45.6197 34.7867L45.4897 30.3667H50.2997H55.1097L54.9797 34.7867Z" fill="#CB9975"/>
<path d="M48.5671 31.9698C47.6137 32.3598 46.4437 33.9632 46.4004 34.8298C46.4004 36.3465 47.8304 38.1665 49.2604 38.4265C51.8171 38.9032 53.6371 37.0832 53.1604 34.4398C52.7271 32.2732 50.6904 31.1465 48.5671 31.9698ZM51.3404 34.3532C51.9471 35.3065 51.2537 36.6065 50.0404 36.7798C48.8271 36.9532 47.9604 35.3932 48.6537 34.2665C49.3037 33.2265 50.6471 33.2698 51.3404 34.3532Z" fill="#CB9975"/>
<path d="M15.6767 43.1065C15.3301 43.4965 15.2001 45.5765 15.2867 49.4765L15.4167 55.2832H21.7001H27.9834L28.1134 49.4765C28.2001 45.5765 28.0701 43.4965 27.7234 43.1065C26.9867 42.2399 16.4134 42.2399 15.6767 43.1065ZM26.3801 49.0865L26.2501 53.5499H21.7001H17.1501L17.0201 49.0865L16.8901 44.6665H21.7001H26.5101L26.3801 49.0865Z" fill="#CB9975"/>
<path d="M19.7931 46.9634C17.8431 48.9134 18.7097 51.6001 21.4831 52.2934C22.9131 52.6401 25.5997 50.6901 25.5997 49.3034C25.5564 47.8734 24.0831 46.4001 22.3931 46.0967C21.1797 45.9234 20.7031 46.0534 19.7931 46.9634ZM23.3031 48.3501C24.1264 49.2167 23.3464 50.3001 21.8731 50.3001C20.6597 50.3001 20.2697 49.7367 20.6164 48.5667C20.9631 47.5267 22.3497 47.4401 23.3031 48.3501Z" fill="#CB9975"/>
<path d="M29.9765 43.1065C29.6299 43.4965 29.4999 45.5765 29.5865 49.4765L29.7165 55.2832H35.9999H42.2832L42.4132 49.4765C42.4999 45.5765 42.3699 43.4965 42.0232 43.1065C41.2865 42.2399 30.7132 42.2399 29.9765 43.1065ZM40.6799 49.0865L40.5499 53.5499H35.9999H31.4499L31.3199 49.0865L31.1899 44.6665H35.9999H40.8099L40.6799 49.0865Z" fill="#CB9975"/>
<path d="M33.9199 46.9631C32.3599 48.6531 32.7066 50.7764 34.7432 51.8597C35.8699 52.4231 36.1299 52.4231 37.2566 51.8597C39.2499 50.8197 39.5966 48.9564 38.1232 47.0931C36.9966 45.6631 35.1766 45.6197 33.9199 46.9631ZM37.2999 48.9997C37.2999 50.1697 37.1699 50.2997 35.9999 50.2997C34.8299 50.2997 34.6999 50.1697 34.6999 48.9997C34.6999 47.8297 34.8299 47.6997 35.9999 47.6997C37.1699 47.6997 37.2999 47.8297 37.2999 48.9997Z" fill="#CB9975"/>
<path d="M44.2764 43.1065C43.9297 43.4965 43.7997 45.5765 43.8864 49.4765L44.0164 55.2832H50.2997H56.583L56.713 49.4765C56.7997 45.5765 56.6697 43.4965 56.323 43.1065C55.5864 42.2399 45.013 42.2399 44.2764 43.1065ZM54.9797 49.0865L54.8497 53.5499H50.2997H45.7497L45.6197 49.0865L45.4897 44.6665H50.2997H55.1097L54.9797 49.0865Z" fill="#CB9975"/>
<path d="M48.5671 46.2697C47.5704 46.703 46.4437 48.263 46.4004 49.303C46.4004 49.9097 46.9637 50.6897 47.9171 51.4263C49.6071 52.683 50.9937 52.6397 52.4671 51.1663C54.8071 48.8263 51.7737 45.013 48.5671 46.2697ZM51.3404 48.393C51.7737 49.4763 51.6437 49.823 50.7771 50.2997C50.1271 50.603 49.6937 50.5163 48.9571 49.9097C48.0904 49.2163 48.0471 48.9997 48.5237 48.393C49.2604 47.483 50.9937 47.483 51.3404 48.393Z" fill="#CB9975"/>
</svg>
