<svg width="85" height="85" viewBox="0 0 85 85" fill="none" xmlns="http://www.w3.org/2000/svg">
<path d="M38.6709 13.5045C35.3644 14.8967 33.1456 16.7675 31.1877 19.8565C30.0131 21.7273 29.0124 26.6871 29.404 28.819C29.7085 30.2982 29.578 30.5157 27.3156 32.7781C25.9669 34.0833 24.8792 35.3885 24.8792 35.6496C24.8357 37.1288 24.1831 37.3028 21.8772 36.3892C16.8739 34.4314 11.0875 35.6931 7.30239 39.5652C4.43093 42.5237 3.77832 44.2204 3.77832 48.5276C3.77832 51.9647 3.90884 52.4868 5.25756 54.8797C7.17187 58.3167 13.6544 64.6687 15.2642 64.6687C15.4817 64.6687 15.7427 64.7993 15.8298 64.9733C15.9168 65.1908 17.5265 66.1045 19.4408 67.0181C21.3552 67.9318 23.2695 68.8889 23.661 69.0629C25.8799 70.1941 33.4936 72.5 34.8423 72.5C36.1475 72.5 36.5826 72.239 37.4527 70.9773C38.0183 70.1506 38.6274 69.4545 38.845 69.4545C39.0625 69.4545 39.2365 69.237 39.2365 69.0194C39.2365 68.4974 41.0203 65.8434 41.5424 65.6259C41.7164 65.5389 41.847 65.1908 41.847 64.8863C41.847 64.5382 42.108 64.0161 42.4125 63.7116C42.6736 63.407 43.5872 61.8408 44.4139 60.231C46.0671 57.0115 46.2412 56.968 48.547 59.4044C49.2867 60.144 50.0698 60.7531 50.3743 60.7531C51.114 60.7531 59.8589 56.3589 60.0329 55.8803C60.1199 55.7063 60.3809 55.5323 60.5985 55.5323C61.0336 55.5323 66.82 51.7472 68.7778 50.1809C69.9525 49.1802 76.9571 42.1756 77.7838 41.0879C78.0448 40.7399 78.4364 40.0438 78.5669 39.5217C78.7409 38.9996 79.089 38.5645 79.3065 38.5645C79.524 38.5645 79.6981 38.2165 79.6981 37.7814C79.6981 37.3463 80.0461 36.5197 80.4377 35.9541C81.0468 35.1275 81.2208 33.9528 81.2208 30.7333C81.2208 26.5566 81.0033 25.8605 78.6974 22.2929C77.7402 20.7702 75.1733 18.5513 73.346 17.6812C71.0837 16.55 67.3421 15.9409 64.8622 16.2454C62.7738 16.5065 57.5095 18.7688 57.5095 19.465C57.5095 20.0741 56.2043 19.9435 56.2043 19.2909C56.1608 18.3773 52.1581 14.8532 49.8958 13.722C46.6762 12.1993 42.021 12.0688 38.6709 13.5045ZM48.7646 15.5058C50.9399 16.5065 53.9854 19.3779 55.0731 21.4663C55.9867 23.2936 56.6393 23.2501 58.6842 21.3793C61.2511 19.0299 62.9479 18.3773 66.6895 18.3773C69.1694 18.3773 70.4311 18.6383 71.9103 19.3344C74.0421 20.3786 77.0876 22.8585 77.0876 23.5981C77.0876 23.8157 77.3052 24.2507 77.6097 24.5553C78.4364 25.3819 79.263 28.2099 79.263 30.4287C79.263 32.343 78.1753 36.7372 77.5662 37.2593C77.4357 37.3898 76.9136 38.26 76.435 39.2171C75.1298 41.8276 68.9083 47.7445 64.1225 50.9205C59.4238 54.0095 51.8971 58.1427 50.9399 58.1427C50.5919 58.1427 49.5477 57.3596 48.6341 56.4459C47.0243 54.7926 46.9808 54.7491 47.6334 53.3134C48.9821 50.0939 49.6782 46.8309 49.6782 43.3503C49.6782 38.3905 48.7646 35.9541 45.7626 32.9086C42.5866 29.6891 40.1067 28.819 35.0599 29.08L31.4053 29.254V26.8611C31.4053 21.6403 35.843 16.0279 40.7593 14.9402C43.1087 14.4181 46.9373 14.6792 48.7646 15.5058ZM41.4554 32.169C44.6314 33.6917 46.5457 36.3022 47.3723 40.2613C48.025 43.3938 47.7204 46.5263 46.1977 51.1816C45.284 53.9225 41.4554 61.7538 40.8898 61.9713C40.7158 62.0583 40.5417 62.3194 40.5417 62.5369C40.5417 63.0155 38.7145 65.6694 38.2794 65.8869C38.0618 65.9739 37.9313 66.235 37.9313 66.496C37.9313 67.4097 35.2339 70.3246 34.4073 70.3246C31.9709 70.3246 21.4422 66.0175 16.5259 63.059C12.6538 60.7096 7.91149 56.4459 7.91149 55.3147C7.91149 55.0537 7.69395 54.6186 7.3894 54.3141C6.51926 53.4439 5.73614 50.616 5.73614 48.2666C5.73614 45.5257 6.95433 42.5237 8.82513 40.6964C10.6089 38.9561 14.394 37.2593 16.4824 37.2593C18.3532 37.2593 21.4857 38.347 23.2695 39.5652C24.8792 40.6529 25.6188 40.3048 26.1844 38.086C26.837 35.6496 30.1001 32.4736 32.9715 31.5164C35.756 30.5592 38.4534 30.7768 41.4554 32.169Z" fill="#CB9975"/>
<path d="M71.7368 26.6872C71.5628 26.8177 71.5628 28.1664 71.6933 29.6457C71.9108 31.821 71.8238 32.6476 71.0407 34.3879C69.779 37.0854 65.9939 40.914 61.7737 43.7854C58.6412 45.8738 57.9451 46.7004 58.6412 47.3965C59.4243 48.1361 65.5588 44.09 69.0394 40.5659C72.955 36.5633 74.3907 32.9522 73.6076 28.993C73.3901 27.9054 73.216 26.9047 73.1725 26.6872C73.1725 26.2956 72.1284 26.2956 71.7368 26.6872Z" fill="#CB9975"/>
<path d="M35.3203 36.8243C35.3203 37.3899 35.7989 37.912 36.5385 38.2166C37.1911 38.5211 38.3658 39.4348 39.1054 40.3049C40.5847 41.8712 40.8022 42.7848 40.5847 46.831C40.4976 48.6147 38.9749 53.7051 38.4093 54.2272C38.2788 54.3577 37.8002 55.0973 37.4086 55.8804C35.6249 59.274 37.3651 60.3181 39.3665 57.0551C40.0191 55.9674 40.5412 54.9668 40.5412 54.8363C40.5412 54.7057 40.8022 53.9661 41.1503 53.2265C41.9769 51.2252 43.1516 46.6134 43.1516 45.1777C43.1516 43.2199 41.8464 39.7828 40.5847 38.4341C39.4535 37.2159 37.1041 35.9542 35.9294 35.9542C35.5814 35.9542 35.3203 36.3458 35.3203 36.8243Z" fill="#CB9975"/>
</svg>
