<svg width="24" height="24" viewBox="0 0 24 24" fill="none" xmlns="http://www.w3.org/2000/svg">
<path fill-rule="evenodd" clip-rule="evenodd" d="M13.2 0C13.5182 0 13.8235 0.125999 14.0485 0.351599C14.2735 0.575999 14.4 0.882 14.4 1.2V8.4C14.4 8.718 14.2735 9.024 14.0485 9.2484C13.8235 9.474 13.5182 9.6 13.2 9.6C12.8817 9.6 12.5765 9.474 12.3515 9.2484C12.1265 9.024 12 8.718 12 8.4V1.2C12 0.882 12.1265 0.575999 12.3515 0.351599C12.5765 0.125999 12.8817 0 13.2 0ZM16.8 2.4C17.1182 2.4 17.4235 2.526 17.6485 2.7516C17.8735 2.976 18 3.282 18 3.6V10.8C18 11.118 17.8735 11.424 17.6485 11.6484C17.4235 11.874 17.1182 12 16.8 12C16.4817 12 16.1765 11.874 15.9515 11.6484C15.7265 11.424 15.6 11.118 15.6 10.8V3.6C15.6 3.282 15.7265 2.976 15.9515 2.7516C16.1765 2.526 16.4817 2.4 16.8 2.4ZM9.59999 2.4C9.91825 2.4 10.2235 2.526 10.4485 2.7516C10.6736 2.976 10.8 3.282 10.8 3.6V9.6C10.8 9.918 10.6736 10.224 10.4485 10.4484C10.2235 10.674 9.91825 10.8 9.59999 10.8C9.28172 10.8 8.9765 10.674 8.75146 10.4484C8.52642 10.224 8.39999 9.918 8.39999 9.6V3.6C8.39999 3.282 8.52642 2.976 8.75146 2.7516C8.9765 2.526 9.28172 2.4 9.59999 2.4ZM5.99999 4.8C6.31825 4.8 6.62347 4.926 6.84852 5.1516C7.07356 5.376 7.19999 5.682 7.19999 6V10.8C7.19999 11.118 7.07356 11.424 6.84852 11.6484C6.62347 11.874 6.31825 12 5.99999 12C5.68172 12 5.3765 11.874 5.15146 11.6484C4.92642 11.424 4.79999 11.118 4.79999 10.8V6C4.79999 5.682 4.92642 5.376 5.15146 5.1516C5.3765 4.926 5.68172 4.8 5.99999 4.8Z" fill="#F3C4B7"/>
<path opacity="0.5" fill-rule="evenodd" clip-rule="evenodd" d="M15.6 7.21313V5.98193H18.0132V7.21313H15.6ZM14.4 7.21313H12V5.98193H14.4V7.21313ZM8.39997 5.98193H10.8V7.21313H8.39997V5.98193ZM4.81317 5.98193H7.19997V7.21313H4.81317V5.98193Z" fill="#D09889"/>
<path fill-rule="evenodd" clip-rule="evenodd" d="M20.4 13.2002V20.3174C19.7039 21.4418 18.7325 22.3706 17.5776 23.015C16.4227 23.6594 15.1225 23.9978 13.8 24.0002H12.6C10.5313 24.0002 8.54735 23.1782 7.08456 21.7154C5.62177 20.2526 4.79999 18.269 4.79999 16.2002V15.0002C4.80932 14.3918 4.89398 13.787 5.052 13.2002H20.4Z" fill="#F3C4B7"/>
<path d="M24 7.2002H0V19.2002H24V7.2002Z" fill="#76A158"/>
<path d="M24 7.2002H0V8.4002H24V7.2002Z" fill="#89AF6D"/>
<path opacity="0.7" d="M6.59998 15.6001C8.25683 15.6001 9.59998 14.2573 9.59998 12.6001C9.59998 10.9429 8.25683 9.6001 6.59998 9.6001C4.94312 9.6001 3.59998 10.9429 3.59998 12.6001C3.59998 14.2573 4.94312 15.6001 6.59998 15.6001Z" fill="#9FD17D"/>
<path fill-rule="evenodd" clip-rule="evenodd" d="M20.4 19.2001V18.0001H24V19.2001H20.4ZM12.1692 19.2001H0V18.0001H12C12 16.7269 12.5057 15.5065 13.4059 14.6065C14.306 13.7053 15.5269 13.2001 16.8 13.2001V10.8001C16.8 10.4821 16.9265 10.1761 17.1515 9.9517C17.3765 9.7261 17.6818 9.6001 18 9.6001C18.3182 9.6001 18.6235 9.7261 18.8485 9.9517C19.0735 10.1761 19.2 10.4821 19.2 10.8001V13.8661C19.6471 14.1373 20.0474 14.4793 20.3856 14.8789V19.2001H12.1692Z" fill="#669248"/>
<path fill-rule="evenodd" clip-rule="evenodd" d="M20.4 18.0001V20.3245H13.5792C13.2463 19.6417 13.1088 18.8797 13.1819 18.1237C13.255 17.3665 13.5358 16.6453 13.9932 16.0381C14.4508 15.4321 15.0671 14.9629 15.7742 14.6845C16.4814 14.4061 17.2517 14.3293 18 14.4613V10.8001C18 10.4821 18.1265 10.1761 18.3515 9.9517C18.5765 9.7261 18.8818 9.6001 19.2 9.6001C19.5182 9.6001 19.8235 9.7261 20.0485 9.9517C20.2735 10.1761 20.4 10.4821 20.4 10.8001V18.0001Z" fill="#F3C4B7"/>
</svg>
