<svg width="34" height="24" viewBox="0 0 34 24" fill="none" xmlns="http://www.w3.org/2000/svg">
<path fill-rule="evenodd" clip-rule="evenodd" d="M21.3333 24C27.9613 24 33.3333 18.628 33.3333 12C33.3333 5.372 27.9613 0 21.3333 0C14.7053 0 9.33331 5.372 9.33331 12C9.33331 18.628 14.7053 24 21.3333 24ZM21.3333 16.6667C23.9106 16.6667 26 14.5773 26 12C26 9.42267 23.9106 7.33333 21.3333 7.33333C18.756 7.33333 16.6666 9.42267 16.6666 12C16.6666 14.5773 18.756 16.6667 21.3333 16.6667Z" fill="#8A42F9"/>
<path d="M9.33333 4H0L4.97729 20H9.33333V4Z" fill="#8A42F9"/>
</svg>
