<svg width="63" height="25" viewBox="0 -8 63 25" fill="none" xmlns="http://www.w3.org/2000/svg">
<path d="M5.92096 8.205V2.349H9.34796V0.218002H0V2.349H3.42596V8.205H5.92096ZM12.8409 0.218002H10.3459V8.205H12.8409V0.218002ZM14.667 0.218002V8.205H16.963V3.79199L21.237 8.205H23.366V0.218002H21.071V4.59799L16.896 0.218002H14.667ZM28.27 5.185L31.1479 8.205H34.358L30.349 4.04399L34.2079 0.218002H31.181L28.27 3.222H27.605V0.218002H25.193V8.205H27.605V5.185H28.27ZM39.321 0C36.077 0 34.131 1.846 34.131 4.229C34.131 6.611 36.077 8.457 39.321 8.457C42.548 8.457 44.494 6.611 44.494 4.229C44.494 1.846 42.548 0 39.321 0ZM39.321 6.511C37.707 6.511 36.676 5.537 36.676 4.229C36.676 2.92 37.707 1.963 39.321 1.963C40.917 1.963 41.965 2.92 41.965 4.229C41.965 5.537 40.917 6.511 39.321 6.511ZM53.64 0.218002H45.64V8.205H48.052V5.42H53.291V3.65799H48.052V2.24899H53.64V0.218002ZM62.72 0.218002H54.72V8.205H57.132V5.42H62.371V3.65799H57.132V2.24899H62.72V0.218002Z" fill="#333333"/>
</svg>
