<svg width="137" height="16" viewBox="0 0 137 16" fill="none" xmlns="http://www.w3.org/2000/svg">
<path d="M7.72129 15.9897C11.1381 15.9897 14.0387 13.7497 14.8645 10.5393C14.9471 10.1884 14.7613 9.97162 14.4 9.97162H11.9019C11.6026 9.97162 11.4374 10.1264 11.3032 10.4155C10.7045 11.7574 9.33161 12.5729 7.72129 12.5729C5.08903 12.5729 3.39613 10.7458 3.39613 8C3.39613 5.25419 5.08903 3.42709 7.72129 3.42709C9.33161 3.42709 10.7148 4.24258 11.3032 5.58452C11.4271 5.87355 11.6026 6.02838 11.9019 6.02838H14.4C14.7613 6.02838 14.9471 5.79096 14.8645 5.40902C13.9974 2.1987 11.1071 0 7.72129 0C3.24129 0 0 3.47871 0 8C0 12.5213 3.24129 16 7.72129 16" fill="black"/>
<path d="M30.1213 0.289017H27.4064C27.0142 0.289017 26.7871 0.485145 26.7871 0.836112V6.06965H21.8529V0.836112C21.8529 0.485145 21.6258 0.289017 21.2336 0.289017H18.5187C18.1264 0.289017 17.8994 0.485145 17.8994 0.836112V15.1329C17.8994 15.4839 18.1264 15.68 18.5187 15.68H21.2336C21.6258 15.68 21.8529 15.4839 21.8529 15.1329V9.45547H26.7871V15.1329C26.7871 15.4839 27.0039 15.68 27.4064 15.68H30.1213C30.5135 15.68 30.7406 15.4839 30.7406 15.1329V0.836112C30.7406 0.485145 30.5135 0.289017 30.1213 0.289017Z" fill="black"/>
<path d="M40.6193 15.9897C44.1187 15.9897 46.9368 14.2348 46.9368 10.9316V0.836112C46.9368 0.485144 46.72 0.289017 46.3277 0.289017H43.6542C43.2619 0.289017 43.0451 0.485144 43.0451 0.836112V10.6219C43.0451 11.7884 42.4361 12.5522 40.609 12.5522C38.7819 12.5522 38.1729 11.778 38.1729 10.6219V0.836112C38.1729 0.485144 37.9561 0.289017 37.5639 0.289017H34.8903C34.4981 0.289017 34.2813 0.485144 34.2813 0.836112V10.9316C34.2813 14.2348 37.0993 15.9897 40.5987 15.9897" fill="black"/>
<path d="M55.2361 15.68H58.8697C59.1897 15.68 59.4168 15.5252 59.5097 15.2155L64.1136 0.898086C64.2271 0.526473 64.0413 0.278732 63.6387 0.278732H60.8413C60.5213 0.278732 60.2942 0.412923 60.2013 0.743245L57.0426 11.6026L53.8839 0.743245C53.791 0.412923 53.5639 0.278732 53.2439 0.278732H50.4568C50.0439 0.278732 49.8684 0.51615 49.9819 0.898086L54.5858 15.2155C54.6787 15.5252 54.9058 15.68 55.2258 15.68" fill="black"/>
<path d="M81.7549 15.9897C85.1303 15.9897 88 13.7497 88.8155 10.5393C88.8981 10.1884 88.7123 9.97162 88.351 9.97162H85.8736C85.5845 9.97162 85.4091 10.1264 85.2852 10.4155C84.6968 11.7574 83.3342 12.5729 81.7445 12.5729C79.1432 12.5729 77.471 10.7458 77.471 8C77.471 5.25419 79.1432 3.42709 81.7445 3.42709C83.3342 3.42709 84.6968 4.24258 85.2852 5.58452C85.4091 5.87355 85.5742 6.02838 85.8736 6.02838H88.351C88.7123 6.02838 88.8981 5.79096 88.8155 5.40902C87.9587 2.1987 85.1097 0 81.7549 0C77.3368 0 74.1265 3.47871 74.1265 8C74.1265 12.5213 77.3368 16 81.7549 16" fill="black"/>
<path d="M104.258 0.289017H101.512C101.11 0.289017 100.893 0.485145 100.893 0.836112V6.06965H95.8968V0.836112C95.8968 0.485145 95.6697 0.289017 95.2671 0.289017H92.5213C92.1187 0.289017 91.8916 0.485145 91.8916 0.836112V15.1329C91.8916 15.4839 92.1187 15.68 92.5213 15.68H95.2671C95.6697 15.68 95.8968 15.4839 95.8968 15.1329V9.45547H100.893V15.1329C100.893 15.4839 101.12 15.68 101.512 15.68H104.258C104.661 15.68 104.888 15.4839 104.888 15.1329V0.836112C104.888 0.485145 104.661 0.289017 104.258 0.289017Z" fill="black"/>
<path d="M113.301 9.96131L115.025 4.12906L116.748 9.96131H113.29H113.301ZM122.106 15.0607L117.43 0.743245C117.337 0.433568 117.099 0.278732 116.79 0.278732H113.259C112.95 0.278732 112.712 0.433568 112.619 0.743245L107.943 15.0607C107.809 15.4529 108.005 15.68 108.408 15.68H111.123C111.432 15.68 111.649 15.5458 111.742 15.2155L112.32 13.2542H117.729L118.307 15.2155C118.4 15.5458 118.617 15.68 118.926 15.68H121.641C122.034 15.68 122.24 15.4632 122.106 15.0607Z" fill="black"/>
<path d="M127.732 15.68H131.448C131.778 15.68 132.005 15.5252 132.098 15.2155L136.815 0.898086C136.929 0.526473 136.743 0.278732 136.33 0.278732H133.471C133.151 0.278732 132.914 0.412923 132.821 0.743245L129.59 11.6026L126.359 0.743245C126.266 0.412923 126.028 0.278732 125.708 0.278732H122.849C122.436 0.278732 122.25 0.51615 122.364 0.898086L127.081 15.2155C127.174 15.5252 127.401 15.68 127.732 15.68Z" fill="black"/>
</svg>
